<svg id="Layer_1" data-name="Layer 1" xmlns="http://www.w3.org/2000/svg" xmlns:xlink="http://www.w3.org/1999/xlink" viewBox="0 0 258.02 52.09"><defs><style>.cls-1{fill:url(#linear-gradient);}</style><linearGradient id="linear-gradient" y1="31.87" x2="258.02" y2="31.87" gradientTransform="matrix(1, 0, 0, -1, 0, 62)" gradientUnits="userSpaceOnUse"><stop offset="0" stop-color="#2e3192"/><stop offset="0.09" stop-color="#3a3092"/><stop offset="0.25" stop-color="#562e91"/><stop offset="0.45" stop-color="#7c2a90"/><stop offset="0.71" stop-color="#ab218e"/><stop offset="1" stop-color="#ec008c"/></linearGradient></defs><path class="cls-1" d="M.38,10l1.69-.16a2.06,2.06,0,0,0,.62,1.25,1.85,1.85,0,0,0,1.26.4,2,2,0,0,0,1.26-.35,1,1,0,0,0,.42-.83.78.78,0,0,0-.18-.52,1.54,1.54,0,0,0-.62-.38c-.2-.07-.67-.2-1.39-.38a4.71,4.71,0,0,1-2-.84A2.26,2.26,0,0,1,.69,6.49a2.19,2.19,0,0,1,.37-1.23,2.38,2.38,0,0,1,1.07-.87,4.26,4.26,0,0,1,1.69-.3,3.61,3.61,0,0,1,2.43.71,2.52,2.52,0,0,1,.86,1.89l-1.73.08a1.46,1.46,0,0,0-.47-.95,1.76,1.76,0,0,0-1.1-.29,2,2,0,0,0-1.18.31.61.61,0,0,0-.28.53.66.66,0,0,0,.26.52,4.43,4.43,0,0,0,1.59.58,8.56,8.56,0,0,1,1.87.62A2.42,2.42,0,0,1,7,9,2.71,2.71,0,0,1,7,11.71a2.45,2.45,0,0,1-1.16,1A4.84,4.84,0,0,1,3.92,13a3.71,3.71,0,0,1-2.5-.75A3.26,3.26,0,0,1,.38,10Zm12,.82,1.64.28a2.64,2.64,0,0,1-1,1.37,3,3,0,0,1-1.71.47A2.77,2.77,0,0,1,9,11.91a3.57,3.57,0,0,1-.62-2.14,3.42,3.42,0,0,1,.81-2.42,2.68,2.68,0,0,1,2-.88,2.75,2.75,0,0,1,2.19.92,4.1,4.1,0,0,1,.77,2.81H10a1.62,1.62,0,0,0,.4,1.14,1.26,1.26,0,0,0,.95.41,1,1,0,0,0,.65-.21A1.32,1.32,0,0,0,12.42,10.85Zm.09-1.66a1.56,1.56,0,0,0-.37-1.09,1.12,1.12,0,0,0-.86-.37,1.14,1.14,0,0,0-.89.39A1.57,1.57,0,0,0,10,9.19Zm8.4-.74-1.62.29A1.16,1.16,0,0,0,18.92,8a1.13,1.13,0,0,0-.75-.25,1.23,1.23,0,0,0-1,.42,2.2,2.2,0,0,0-.37,1.42,2.48,2.48,0,0,0,.37,1.56,1.24,1.24,0,0,0,1,.46,1.11,1.11,0,0,0,.77-.27,1.58,1.58,0,0,0,.42-.92l1.62.28a2.87,2.87,0,0,1-1,1.68,3,3,0,0,1-1.92.57,2.87,2.87,0,0,1-2.18-.86,3.33,3.33,0,0,1-.81-2.38,3.35,3.35,0,0,1,.81-2.4,2.9,2.9,0,0,1,2.2-.86A3,3,0,0,1,19.94,7,2.71,2.71,0,0,1,20.91,8.45Zm2.83,4.38H22.09V6.61h1.53v.88a2.71,2.71,0,0,1,.71-.83,1.25,1.25,0,0,1,.71-.2,2,2,0,0,1,1.08.31l-.51,1.44a1.46,1.46,0,0,0-.77-.27.91.91,0,0,0-.59.19,1.32,1.32,0,0,0-.38.69,9.88,9.88,0,0,0-.14,2.09v1.92Zm6.69-2,1.64.28a2.64,2.64,0,0,1-1,1.37,3,3,0,0,1-1.71.47A2.77,2.77,0,0,1,27,11.91a3.57,3.57,0,0,1-.62-2.14,3.42,3.42,0,0,1,.81-2.42,2.68,2.68,0,0,1,2-.88,2.75,2.75,0,0,1,2.19.92,4.1,4.1,0,0,1,.77,2.81H28a1.62,1.62,0,0,0,.4,1.14,1.26,1.26,0,0,0,.95.41,1,1,0,0,0,.65-.21A1.32,1.32,0,0,0,30.43,10.85Zm.1-1.66a1.56,1.56,0,0,0-.37-1.09,1.12,1.12,0,0,0-.86-.37,1.14,1.14,0,0,0-.89.39,1.57,1.57,0,0,0-.35,1.07Zm5.83-2.58V7.92H35.24v2.51a6.79,6.79,0,0,0,0,.89.35.35,0,0,0,.15.21.44.44,0,0,0,.28.08,2,2,0,0,0,.66-.16l.14,1.28a3.35,3.35,0,0,1-1.3.25,2,2,0,0,1-.8-.15,1.13,1.13,0,0,1-.52-.39,1.5,1.5,0,0,1-.23-.64,7.43,7.43,0,0,1,0-1.16V7.92h-.76V6.61h.76V5.37l1.65-1v2.2ZM40.83,10l1.69-.16a2.06,2.06,0,0,0,.62,1.25,1.85,1.85,0,0,0,1.26.4,2,2,0,0,0,1.26-.35,1,1,0,0,0,.42-.83.78.78,0,0,0-.18-.52,1.43,1.43,0,0,0-.62-.37c-.2-.07-.67-.2-1.39-.38a4.7,4.7,0,0,1-2-.85,2.22,2.22,0,0,1-.79-1.73,2.19,2.19,0,0,1,.37-1.23,2.38,2.38,0,0,1,1.07-.87,4.26,4.26,0,0,1,1.69-.3,3.61,3.61,0,0,1,2.43.71,2.52,2.52,0,0,1,.86,1.89l-1.73.08a1.42,1.42,0,0,0-.48-.95,1.78,1.78,0,0,0-1.1-.29,2,2,0,0,0-1.18.31.63.63,0,0,0-.28.53.66.66,0,0,0,.26.52,4.48,4.48,0,0,0,1.59.57,8,8,0,0,1,1.87.62,2.42,2.42,0,0,1,1,.87,2.71,2.71,0,0,1-.07,2.75,2.45,2.45,0,0,1-1.16,1,4.84,4.84,0,0,1-1.87.31,3.71,3.71,0,0,1-2.5-.75A3.23,3.23,0,0,1,40.83,10ZM50.9,4.24V7.4a2.43,2.43,0,0,1,1.9-.93,2.46,2.46,0,0,1,1,.21,1.67,1.67,0,0,1,.69.54,1.92,1.92,0,0,1,.32.73,6.37,6.37,0,0,1,.08,1.24v3.65H53.27V9.54a5,5,0,0,0-.09-1.24.9.9,0,0,0-.33-.42,1,1,0,0,0-.59-.16,1.38,1.38,0,0,0-.73.2,1.15,1.15,0,0,0-.47.6,3.58,3.58,0,0,0-.16,1.19v3.12H49.25V4.24Zm5.31,5.39A3.35,3.35,0,0,1,56.61,8a2.76,2.76,0,0,1,1.15-1.17,3.42,3.42,0,0,1,1.66-.4,3.1,3.1,0,0,1,2.31.92,3.17,3.17,0,0,1,.9,2.32,3.2,3.2,0,0,1-.91,2.34,3.08,3.08,0,0,1-2.29.93,3.59,3.59,0,0,1-1.63-.39,2.69,2.69,0,0,1-1.18-1.13A3.78,3.78,0,0,1,56.21,9.63Zm1.68.09a2.08,2.08,0,0,0,.44,1.42,1.44,1.44,0,0,0,2.16,0,2.09,2.09,0,0,0,.44-1.43,2.07,2.07,0,0,0-.44-1.41,1.44,1.44,0,0,0-2.16,0A2.08,2.08,0,0,0,57.89,9.72Zm7.19,3.11-2-6.22h1.6l1.17,4.08L67,6.61h1.59l1,4.08,1.19-4.08h1.62l-2,6.22H68.8l-1.07-4-1,4ZM77,5.76V4.24h1.65V5.76Zm0,7.07V6.61h1.65v6.22Zm2.75-1.78,1.65-.25a1.2,1.2,0,0,0,.43.73,1.44,1.44,0,0,0,.9.25,1.66,1.66,0,0,0,1-.23.54.54,0,0,0,.22-.44.43.43,0,0,0-.12-.31,1.34,1.34,0,0,0-.55-.22,9,9,0,0,1-2.53-.8A1.61,1.61,0,0,1,80,8.38,1.72,1.72,0,0,1,80.62,7a3,3,0,0,1,2-.55,3.45,3.45,0,0,1,1.9.42,2.14,2.14,0,0,1,.86,1.23l-1.55.28a1,1,0,0,0-.38-.56,1.38,1.38,0,0,0-.79-.19,1.81,1.81,0,0,0-.93.18.41.41,0,0,0-.19.33.35.35,0,0,0,.16.3,6.24,6.24,0,0,0,1.54.46,4.59,4.59,0,0,1,1.84.73,1.53,1.53,0,0,1,.52,1.22,1.89,1.89,0,0,1-.71,1.47,3.16,3.16,0,0,1-2.12.62,3.4,3.4,0,0,1-2-.52A2.39,2.39,0,0,1,79.76,11.05ZM92,8.51l-1.5-.27a2.36,2.36,0,0,1,.87-1.34,3.17,3.17,0,0,1,1.83-.43,4,4,0,0,1,1.64.26,1.62,1.62,0,0,1,.76.66,3.34,3.34,0,0,1,.22,1.47l0,1.92A6.89,6.89,0,0,0,95.88,12a3.1,3.1,0,0,0,.3.83H94.55c0-.11-.1-.27-.16-.49l-.06-.19a3.09,3.09,0,0,1-.9.62,2.53,2.53,0,0,1-1,.21,2.08,2.08,0,0,1-1.51-.52,1.77,1.77,0,0,1-.55-1.32,1.74,1.74,0,0,1,.25-.94,1.61,1.61,0,0,1,.71-.63,6,6,0,0,1,1.31-.38,9.18,9.18,0,0,0,1.6-.4V8.61A.88.88,0,0,0,94,7.93a1.44,1.44,0,0,0-.88-.2,1.26,1.26,0,0,0-.69.17A1.1,1.1,0,0,0,92,8.51Zm2.2,1.33c-.21.07-.54.15-1,.25a2.88,2.88,0,0,0-.9.29A.7.7,0,0,0,92,11a.83.83,0,0,0,.26.6.89.89,0,0,0,.66.25,1.45,1.45,0,0,0,.85-.29,1,1,0,0,0,.39-.54,3.48,3.48,0,0,0,.06-.8Zm8.9,3h-1.65V9.65a4.79,4.79,0,0,0-.11-1.3.93.93,0,0,0-.34-.46,1,1,0,0,0-.57-.16,1.37,1.37,0,0,0-.77.23,1.21,1.21,0,0,0-.47.62A5.07,5.07,0,0,0,99.06,10v2.82H97.41V6.61h1.53v.91a2.55,2.55,0,0,1,3-.85,1.65,1.65,0,0,1,.68.5,1.82,1.82,0,0,1,.32.69A5.23,5.23,0,0,1,103.08,9v3.86Zm6.66-4.32-1.49-.27a2.36,2.36,0,0,1,.87-1.34A3.17,3.17,0,0,1,111,6.47a4,4,0,0,1,1.64.26,1.62,1.62,0,0,1,.76.66,3.34,3.34,0,0,1,.22,1.47l0,1.92a6.89,6.89,0,0,0,.08,1.21,3.1,3.1,0,0,0,.3.83h-1.63c0-.11-.1-.27-.16-.49l-.06-.19a3.09,3.09,0,0,1-.9.62,2.53,2.53,0,0,1-1,.21,2.08,2.08,0,0,1-1.51-.52,1.77,1.77,0,0,1-.55-1.32,1.74,1.74,0,0,1,.25-.94,1.61,1.61,0,0,1,.71-.63,6,6,0,0,1,1.31-.38,9.18,9.18,0,0,0,1.6-.4V8.61a.88.88,0,0,0-.23-.68,1.44,1.44,0,0,0-.88-.2,1.26,1.26,0,0,0-.69.17A1.06,1.06,0,0,0,109.76,8.51ZM112,9.84c-.21.07-.54.15-1,.25a2.88,2.88,0,0,0-.9.29.7.7,0,0,0-.32.58.83.83,0,0,0,.26.6.89.89,0,0,0,.66.25,1.45,1.45,0,0,0,.85-.29,1,1,0,0,0,.39-.54,3.48,3.48,0,0,0,.06-.8Zm3.19-3.23h1.54v.91a2.29,2.29,0,0,1,1.94-1,2.36,2.36,0,0,1,1.84.85,3.48,3.48,0,0,1,.76,2.37,3.51,3.51,0,0,1-.76,2.42,2.39,2.39,0,0,1-1.85.86,2,2,0,0,1-.93-.21,3.39,3.39,0,0,1-.88-.7v3.13h-1.65V6.61Zm1.63,3a2.37,2.37,0,0,0,.42,1.55,1.29,1.29,0,0,0,1,.5,1.2,1.2,0,0,0,1-.46,2.34,2.34,0,0,0,.38-1.51,2.24,2.24,0,0,0-.39-1.45,1.2,1.2,0,0,0-1-.47,1.26,1.26,0,0,0-1,.47A2,2,0,0,0,116.78,9.61Zm5.7-3H124v.91a2.29,2.29,0,0,1,1.94-1,2.36,2.36,0,0,1,1.84.85,3.48,3.48,0,0,1,.76,2.37,3.51,3.51,0,0,1-.76,2.42A2.39,2.39,0,0,1,126,13a2,2,0,0,1-.93-.21,3.39,3.39,0,0,1-.88-.7v3.13h-1.65V6.61Zm1.63,3a2.37,2.37,0,0,0,.42,1.55,1.29,1.29,0,0,0,1,.5,1.2,1.2,0,0,0,1-.46,2.34,2.34,0,0,0,.38-1.51,2.24,2.24,0,0,0-.39-1.45,1.2,1.2,0,0,0-1-.47,1.26,1.26,0,0,0-1,.47A2,2,0,0,0,124.11,9.61Zm12.36-3V7.92h-1.12v2.51a6.79,6.79,0,0,0,0,.89.35.35,0,0,0,.15.21.44.44,0,0,0,.28.08,2,2,0,0,0,.66-.16l.14,1.28a3.35,3.35,0,0,1-1.3.25,2,2,0,0,1-.8-.15,1.13,1.13,0,0,1-.52-.39,1.5,1.5,0,0,1-.23-.64,7.43,7.43,0,0,1,0-1.16V7.92H133V6.61h.76V5.37l1.65-1v2.2Zm.76,3a3.35,3.35,0,0,1,.4-1.59,2.8,2.8,0,0,1,1.14-1.17,3.4,3.4,0,0,1,1.66-.4,3.1,3.1,0,0,1,2.31.92,3.17,3.17,0,0,1,.9,2.32,3.2,3.2,0,0,1-.91,2.34,3.08,3.08,0,0,1-2.29.93,3.56,3.56,0,0,1-1.63-.39,2.74,2.74,0,0,1-1.18-1.13A3.83,3.83,0,0,1,137.23,9.63Zm1.69.09a2.08,2.08,0,0,0,.44,1.42,1.44,1.44,0,0,0,2.16,0A2.09,2.09,0,0,0,142,9.71a2.07,2.07,0,0,0-.44-1.41,1.44,1.44,0,0,0-2.16,0A2,2,0,0,0,138.92,9.72Zm15.2-1.27-1.62.29a1.16,1.16,0,0,0-.37-.73,1.13,1.13,0,0,0-.75-.25,1.23,1.23,0,0,0-1,.42A2.2,2.2,0,0,0,150,9.6a2.48,2.48,0,0,0,.37,1.56,1.24,1.24,0,0,0,1,.46,1.11,1.11,0,0,0,.77-.27,1.58,1.58,0,0,0,.42-.92l1.62.28a2.87,2.87,0,0,1-1,1.68,3,3,0,0,1-1.92.57,2.87,2.87,0,0,1-2.18-.86,3.33,3.33,0,0,1-.81-2.38,3.35,3.35,0,0,1,.81-2.4,2.9,2.9,0,0,1,2.2-.86,3,3,0,0,1,1.81.49A2.76,2.76,0,0,1,154.12,8.45ZM155,9.63a3.35,3.35,0,0,1,.4-1.59,2.76,2.76,0,0,1,1.15-1.17,3.42,3.42,0,0,1,1.66-.4,3.1,3.1,0,0,1,2.31.92,3.17,3.17,0,0,1,.9,2.32,3.2,3.2,0,0,1-.91,2.34,3.08,3.08,0,0,1-2.29.93,3.59,3.59,0,0,1-1.63-.39,2.69,2.69,0,0,1-1.18-1.13A3.78,3.78,0,0,1,155,9.63Zm1.69.09a2.08,2.08,0,0,0,.44,1.42,1.44,1.44,0,0,0,2.16,0,2.09,2.09,0,0,0,.44-1.43,2.07,2.07,0,0,0-.44-1.41,1.44,1.44,0,0,0-2.16,0A2.08,2.08,0,0,0,156.67,9.72Zm11.69,3.11h-1.65V9.65a4.79,4.79,0,0,0-.11-1.3.93.93,0,0,0-.34-.46,1,1,0,0,0-.57-.16,1.37,1.37,0,0,0-.77.23,1.21,1.21,0,0,0-.47.62,5.07,5.07,0,0,0-.13,1.43v2.82h-1.65V6.61h1.53v.91a2.55,2.55,0,0,1,3.05-.85,1.65,1.65,0,0,1,.68.5,1.82,1.82,0,0,1,.32.69A5.23,5.23,0,0,1,168.34,9v3.86Zm7.33,0H174V9.65a4.79,4.79,0,0,0-.11-1.3.93.93,0,0,0-.34-.46,1,1,0,0,0-.57-.16,1.37,1.37,0,0,0-.77.23,1.21,1.21,0,0,0-.47.62,5.07,5.07,0,0,0-.13,1.43v2.82H170V6.61h1.53v.91a2.55,2.55,0,0,1,3.05-.85,1.65,1.65,0,0,1,.68.5,1.82,1.82,0,0,1,.32.69A5.23,5.23,0,0,1,175.67,9v3.86Zm5.27-2,1.64.28a2.64,2.64,0,0,1-1,1.37,3,3,0,0,1-1.71.47,2.77,2.77,0,0,1-2.4-1.06,3.57,3.57,0,0,1-.62-2.14,3.42,3.42,0,0,1,.81-2.42,2.68,2.68,0,0,1,2-.88,2.75,2.75,0,0,1,2.19.92,4.1,4.1,0,0,1,.77,2.81h-4.12a1.62,1.62,0,0,0,.4,1.14,1.26,1.26,0,0,0,.95.41,1,1,0,0,0,.65-.21A1.32,1.32,0,0,0,181,10.85Zm.09-1.66a1.56,1.56,0,0,0-.37-1.09,1.12,1.12,0,0,0-.86-.37,1.14,1.14,0,0,0-.89.39,1.57,1.57,0,0,0-.35,1.07Zm8.41-.74-1.62.29a1.16,1.16,0,0,0-.37-.73,1.13,1.13,0,0,0-.75-.25,1.23,1.23,0,0,0-1,.42,2.2,2.2,0,0,0-.37,1.42,2.48,2.48,0,0,0,.37,1.56,1.24,1.24,0,0,0,1,.46,1.11,1.11,0,0,0,.77-.27,1.58,1.58,0,0,0,.42-.92l1.62.28a2.87,2.87,0,0,1-1,1.68,3,3,0,0,1-1.92.57,2.87,2.87,0,0,1-2.18-.86,3.33,3.33,0,0,1-.81-2.38,3.35,3.35,0,0,1,.81-2.4,2.9,2.9,0,0,1,2.2-.86,3,3,0,0,1,1.81.49A2.76,2.76,0,0,1,189.46,8.45Zm4.1-1.84V7.92h-1.12v2.51a6.79,6.79,0,0,0,0,.89.35.35,0,0,0,.15.21.44.44,0,0,0,.28.08,2,2,0,0,0,.66-.16l.14,1.28a3.35,3.35,0,0,1-1.3.25,2,2,0,0,1-.8-.15,1.13,1.13,0,0,1-.52-.39,1.5,1.5,0,0,1-.23-.64,7.43,7.43,0,0,1,0-1.16V7.92H190V6.61h.76V5.37l1.65-1v2.2Zm7.75,0V7.92h-1.12v2.51a6.79,6.79,0,0,0,0,.89.35.35,0,0,0,.15.21.44.44,0,0,0,.28.08,2,2,0,0,0,.66-.16l.14,1.28a3.35,3.35,0,0,1-1.3.25,2,2,0,0,1-.8-.15,1.13,1.13,0,0,1-.52-.39,1.5,1.5,0,0,1-.23-.64,7.43,7.43,0,0,1,0-1.16V7.92h-.76V6.61h.76V5.37l1.65-1v2.2Zm2.78-2.37V7.4a2.43,2.43,0,0,1,1.9-.93,2.46,2.46,0,0,1,1,.21,1.67,1.67,0,0,1,.69.54A1.92,1.92,0,0,1,208,8a6.37,6.37,0,0,1,.08,1.24v3.65h-1.65V9.54a5,5,0,0,0-.09-1.24.8.8,0,0,0-.33-.42,1.1,1.1,0,0,0-.59-.16,1.38,1.38,0,0,0-.73.2,1.15,1.15,0,0,0-.47.6,3.58,3.58,0,0,0-.15,1.19v3.12h-1.65V4.24Zm9.29,6.61,1.64.28a2.64,2.64,0,0,1-1,1.37,3,3,0,0,1-1.71.47,2.77,2.77,0,0,1-2.4-1.06,3.57,3.57,0,0,1-.62-2.14,3.42,3.42,0,0,1,.81-2.42,2.68,2.68,0,0,1,2-.88,2.75,2.75,0,0,1,2.19.92,4.1,4.1,0,0,1,.77,2.81H211a1.62,1.62,0,0,0,.4,1.14,1.26,1.26,0,0,0,1,.41,1,1,0,0,0,.65-.21A1.32,1.32,0,0,0,213.38,10.85Zm.1-1.66a1.56,1.56,0,0,0-.37-1.09,1.12,1.12,0,0,0-.86-.37,1.14,1.14,0,0,0-.89.39A1.57,1.57,0,0,0,211,9.19Zm6.68-2.58h1.54v.91a2.29,2.29,0,0,1,1.94-1,2.36,2.36,0,0,1,1.84.85,3.48,3.48,0,0,1,.76,2.37,3.51,3.51,0,0,1-.76,2.42,2.39,2.39,0,0,1-1.85.86,2,2,0,0,1-.93-.21,3.39,3.39,0,0,1-.88-.7v3.13h-1.65V6.61Zm1.63,3a2.37,2.37,0,0,0,.42,1.55,1.29,1.29,0,0,0,1,.5,1.2,1.2,0,0,0,1-.46,2.34,2.34,0,0,0,.38-1.51,2.24,2.24,0,0,0-.39-1.45,1.2,1.2,0,0,0-1-.47,1.26,1.26,0,0,0-1,.47A2,2,0,0,0,221.79,9.61Zm9.35,1.24,1.64.28a2.64,2.64,0,0,1-1,1.37,3,3,0,0,1-1.71.47,2.77,2.77,0,0,1-2.4-1.06,3.57,3.57,0,0,1-.62-2.14,3.42,3.42,0,0,1,.81-2.42,2.68,2.68,0,0,1,2-.88,2.75,2.75,0,0,1,2.19.92,4.1,4.1,0,0,1,.77,2.81h-4.12a1.62,1.62,0,0,0,.4,1.14,1.26,1.26,0,0,0,1,.41,1,1,0,0,0,.65-.21A1.32,1.32,0,0,0,231.14,10.85Zm.09-1.66a1.56,1.56,0,0,0-.37-1.09,1.12,1.12,0,0,0-.86-.37,1.14,1.14,0,0,0-.89.39,1.57,1.57,0,0,0-.35,1.07Zm2.6.44a3.35,3.35,0,0,1,.4-1.59,2.76,2.76,0,0,1,1.15-1.17,3.42,3.42,0,0,1,1.66-.4,3.1,3.1,0,0,1,2.31.92,3.17,3.17,0,0,1,.9,2.32,3.2,3.2,0,0,1-.91,2.34,3.08,3.08,0,0,1-2.29.93,3.59,3.59,0,0,1-1.63-.39,2.69,2.69,0,0,1-1.18-1.13A3.78,3.78,0,0,1,233.83,9.63Zm1.69.09a2.08,2.08,0,0,0,.44,1.42,1.44,1.44,0,0,0,2.16,0,2.09,2.09,0,0,0,.44-1.43,2.07,2.07,0,0,0-.44-1.41,1.44,1.44,0,0,0-2.16,0A2,2,0,0,0,235.52,9.72Zm6-3.11H243v.91a2.29,2.29,0,0,1,1.94-1,2.36,2.36,0,0,1,1.84.85,3.48,3.48,0,0,1,.76,2.37,3.51,3.51,0,0,1-.76,2.42A2.39,2.39,0,0,1,245,13a2,2,0,0,1-.93-.21,3.39,3.39,0,0,1-.88-.7v3.13H241.5V6.61Zm1.63,3a2.37,2.37,0,0,0,.42,1.55,1.29,1.29,0,0,0,1,.5,1.2,1.2,0,0,0,1-.46,2.34,2.34,0,0,0,.38-1.51,2.24,2.24,0,0,0-.39-1.45,1.2,1.2,0,0,0-1-.47,1.26,1.26,0,0,0-1,.47A2,2,0,0,0,243.12,9.61Zm5.75,3.22V4.24h1.65v8.59Zm6.94-2,1.64.28a2.64,2.64,0,0,1-1,1.37,3,3,0,0,1-1.71.47,2.77,2.77,0,0,1-2.4-1.06,3.57,3.57,0,0,1-.62-2.14,3.42,3.42,0,0,1,.81-2.42,2.68,2.68,0,0,1,2-.88,2.75,2.75,0,0,1,2.19.92,4.1,4.1,0,0,1,.77,2.81h-4.12a1.62,1.62,0,0,0,.4,1.14,1.26,1.26,0,0,0,.95.41,1,1,0,0,0,.65-.21A1.32,1.32,0,0,0,255.81,10.85Zm.09-1.66a1.56,1.56,0,0,0-.37-1.09,1.12,1.12,0,0,0-.86-.37,1.14,1.14,0,0,0-.89.39,1.57,1.57,0,0,0-.35,1.07ZM2,27.23,0,21H1.6l1.17,4.08L3.84,21H5.43l1,4.08L7.66,21H9.28l-2,6.22H5.7l-1.07-4-1,4Zm8.17-7.07V18.64h1.65v1.52Zm0,7.07V21h1.65v6.22ZM16.33,21v1.31H15.21v2.51a6.79,6.79,0,0,0,0,.89.35.35,0,0,0,.15.21.44.44,0,0,0,.28.08,2,2,0,0,0,.66-.16l.14,1.28a3.35,3.35,0,0,1-1.3.25,2,2,0,0,1-.8-.15,1.13,1.13,0,0,1-.52-.39,1.5,1.5,0,0,1-.23-.64,7.43,7.43,0,0,1,0-1.16V22.33H12.8V21h.76V19.78l1.65-1V21h1.12Zm2.78-2.37V21.8a2.43,2.43,0,0,1,1.9-.93,2.46,2.46,0,0,1,1,.21,1.67,1.67,0,0,1,.69.54,1.92,1.92,0,0,1,.32.73,6.37,6.37,0,0,1,.08,1.24v3.65H21.48V24a5,5,0,0,0-.09-1.24.8.8,0,0,0-.33-.42,1.1,1.1,0,0,0-.59-.16,1.38,1.38,0,0,0-.73.2,1.15,1.15,0,0,0-.47.6,3.58,3.58,0,0,0-.15,1.19v3.12H17.47V18.65h1.64ZM32.22,21v1.31H31.1v2.51a6.79,6.79,0,0,0,0,.89.35.35,0,0,0,.15.21.44.44,0,0,0,.28.08,2,2,0,0,0,.66-.16l.14,1.28a3.35,3.35,0,0,1-1.3.25,2,2,0,0,1-.8-.15,1.13,1.13,0,0,1-.52-.39,1.5,1.5,0,0,1-.23-.64A7.43,7.43,0,0,1,29.46,25V22.33H28.7V21h.76V19.78l1.65-1V21h1.11ZM35,18.64V21.8a2.43,2.43,0,0,1,1.9-.93,2.46,2.46,0,0,1,1,.21,1.67,1.67,0,0,1,.69.54,1.92,1.92,0,0,1,.32.73A6.37,6.37,0,0,1,39,23.59v3.65H37.37V24a5,5,0,0,0-.09-1.24.8.8,0,0,0-.33-.42,1.1,1.1,0,0,0-.59-.16,1.38,1.38,0,0,0-.73.2,1.15,1.15,0,0,0-.47.6A3.51,3.51,0,0,0,35,24.11v3.12H33.35V18.64Zm9.29,6.61,1.64.28a2.64,2.64,0,0,1-1,1.37,3,3,0,0,1-1.71.47,2.77,2.77,0,0,1-2.4-1.06,3.57,3.57,0,0,1-.62-2.14A3.42,3.42,0,0,1,41,21.75a2.68,2.68,0,0,1,2-.88,2.75,2.75,0,0,1,2.19.92A4.1,4.1,0,0,1,46,24.6H41.9a1.62,1.62,0,0,0,.4,1.14,1.26,1.26,0,0,0,1,.41,1,1,0,0,0,.65-.21A1.31,1.31,0,0,0,44.29,25.25Zm.1-1.66A1.56,1.56,0,0,0,44,22.5a1.2,1.2,0,0,0-1.75,0,1.57,1.57,0,0,0-.35,1.07Zm7.53,3.64V18.64h1.65v8.59Zm3-3.2a3.35,3.35,0,0,1,.4-1.59,2.76,2.76,0,0,1,1.15-1.17,3.42,3.42,0,0,1,1.66-.4,3.1,3.1,0,0,1,2.31.92,3.45,3.45,0,0,1,0,4.66,3.08,3.08,0,0,1-2.29.93A3.59,3.59,0,0,1,56.47,27a2.69,2.69,0,0,1-1.18-1.13A3.78,3.78,0,0,1,54.88,24Zm1.68.09A2.08,2.08,0,0,0,57,25.54a1.44,1.44,0,0,0,2.16,0,2.09,2.09,0,0,0,.44-1.43,2.07,2.07,0,0,0-.44-1.41,1.38,1.38,0,0,0-1.08-.49A1.39,1.39,0,0,0,57,22.7,2,2,0,0,0,56.56,24.12ZM68,22.85l-1.62.29a1.16,1.16,0,0,0-.37-.73,1.13,1.13,0,0,0-.75-.25,1.23,1.23,0,0,0-1,.42A2.2,2.2,0,0,0,63.92,24a2.48,2.48,0,0,0,.37,1.56,1.24,1.24,0,0,0,1,.46,1.11,1.11,0,0,0,.77-.27,1.58,1.58,0,0,0,.42-.92l1.62.28a2.87,2.87,0,0,1-1,1.68,3,3,0,0,1-1.92.57A2.87,2.87,0,0,1,63,26.5a3.33,3.33,0,0,1-.81-2.38,3.35,3.35,0,0,1,.81-2.4,2.9,2.9,0,0,1,2.2-.86,3,3,0,0,1,1.81.49A2.71,2.71,0,0,1,68,22.85Zm2.48.06L69,22.64a2.36,2.36,0,0,1,.87-1.34,3.17,3.17,0,0,1,1.83-.43,4,4,0,0,1,1.64.26,1.62,1.62,0,0,1,.76.66,3.34,3.34,0,0,1,.22,1.47l0,1.92a6.89,6.89,0,0,0,.08,1.21,3.1,3.1,0,0,0,.3.83H73.05c0-.11-.1-.27-.16-.49l-.06-.19a3.09,3.09,0,0,1-.9.62,2.53,2.53,0,0,1-1,.21,2.08,2.08,0,0,1-1.51-.52,1.77,1.77,0,0,1-.55-1.32,1.74,1.74,0,0,1,.25-.94A1.61,1.61,0,0,1,69.8,24a6,6,0,0,1,1.31-.38,9.18,9.18,0,0,0,1.6-.4V23a.88.88,0,0,0-.23-.68,1.35,1.35,0,0,0-.88-.2,1.26,1.26,0,0,0-.69.17A1.13,1.13,0,0,0,70.49,22.91Zm2.21,1.33c-.21.07-.54.15-1,.25a2.88,2.88,0,0,0-.9.29.7.7,0,0,0-.32.58.83.83,0,0,0,.26.6.89.89,0,0,0,.66.25,1.45,1.45,0,0,0,.85-.29,1,1,0,0,0,.39-.54,3.48,3.48,0,0,0,.06-.8Zm3.24,3V18.64h1.65v8.59ZM83.71,21h1.52v.85a2.44,2.44,0,0,1,1.94-1,2.05,2.05,0,0,1,1,.25,1.9,1.9,0,0,1,.72.74,2.85,2.85,0,0,1,.88-.74,2.19,2.19,0,0,1,1-.25,2.22,2.22,0,0,1,1.16.28,1.73,1.73,0,0,1,.71.82,3.66,3.66,0,0,1,.17,1.29v4H91.21V23.68a2.71,2.71,0,0,0-.17-1.2.79.79,0,0,0-.7-.35,1.12,1.12,0,0,0-.65.21,1.2,1.2,0,0,0-.44.62,4.48,4.48,0,0,0-.13,1.29v3H87.47V23.83a4.55,4.55,0,0,0-.09-1.17.76.76,0,0,0-.27-.39.9.9,0,0,0-.5-.13,1.22,1.22,0,0,0-.69.21,1.11,1.11,0,0,0-.44.59,4.36,4.36,0,0,0-.13,1.28v3H83.7V21ZM98.6,27.23V26.3a2.52,2.52,0,0,1-.89.79,2.42,2.42,0,0,1-1.17.29,2.19,2.19,0,0,1-1.12-.28,1.67,1.67,0,0,1-.72-.77A3.43,3.43,0,0,1,94.48,25V21h1.65v2.86a8,8,0,0,0,.09,1.61.88.88,0,0,0,.33.47,1,1,0,0,0,.61.17,1.36,1.36,0,0,0,.76-.23,1.14,1.14,0,0,0,.46-.57,6.8,6.8,0,0,0,.12-1.68V21h1.65v6.22H98.6Zm2.65-1.78,1.65-.25a1.2,1.2,0,0,0,.43.73,1.44,1.44,0,0,0,.9.25,1.66,1.66,0,0,0,1-.23.54.54,0,0,0,.22-.44.43.43,0,0,0-.12-.31,1.34,1.34,0,0,0-.55-.22,9,9,0,0,1-2.53-.8,1.61,1.61,0,0,1-.74-1.4,1.72,1.72,0,0,1,.64-1.36,3,3,0,0,1,2-.55,3.45,3.45,0,0,1,1.9.42,2.14,2.14,0,0,1,.86,1.23l-1.55.29a1,1,0,0,0-.38-.56,1.38,1.38,0,0,0-.79-.19,1.81,1.81,0,0,0-.93.18.41.41,0,0,0-.19.33.35.35,0,0,0,.16.3,6.24,6.24,0,0,0,1.54.46,4.59,4.59,0,0,1,1.84.73,1.53,1.53,0,0,1,.52,1.22,1.89,1.89,0,0,1-.71,1.47,3.16,3.16,0,0,1-2.12.62,3.4,3.4,0,0,1-2-.52A2.42,2.42,0,0,1,101.25,25.45Zm7.25-5.29V18.64h1.65v1.52Zm0,7.07V21h1.65v6.22Zm8.76-4.38-1.62.29a1.16,1.16,0,0,0-.37-.73,1.13,1.13,0,0,0-.75-.25,1.23,1.23,0,0,0-1,.42,2.2,2.2,0,0,0-.37,1.42,2.48,2.48,0,0,0,.37,1.56,1.24,1.24,0,0,0,1,.46,1.11,1.11,0,0,0,.77-.27,1.58,1.58,0,0,0,.42-.92l1.62.28a2.87,2.87,0,0,1-1,1.68,3,3,0,0,1-1.92.57,2.87,2.87,0,0,1-2.18-.86,3.33,3.33,0,0,1-.81-2.38,3.35,3.35,0,0,1,.81-2.4,2.9,2.9,0,0,1,2.2-.86,3,3,0,0,1,1.81.49A2.71,2.71,0,0,1,117.26,22.85Zm5.23,2.6,1.65-.25a1.2,1.2,0,0,0,.43.73,1.44,1.44,0,0,0,.9.25,1.66,1.66,0,0,0,1-.23.54.54,0,0,0,.22-.44.43.43,0,0,0-.12-.31A1.34,1.34,0,0,0,126,25a9,9,0,0,1-2.53-.8,1.61,1.61,0,0,1-.74-1.4,1.72,1.72,0,0,1,.64-1.36,3,3,0,0,1,2-.55,3.45,3.45,0,0,1,1.9.42,2.14,2.14,0,0,1,.86,1.23l-1.55.29a1,1,0,0,0-.38-.56,1.38,1.38,0,0,0-.79-.19,1.81,1.81,0,0,0-.93.18.41.41,0,0,0-.19.33.35.35,0,0,0,.16.3,6.24,6.24,0,0,0,1.54.46,4.59,4.59,0,0,1,1.84.73,1.53,1.53,0,0,1,.52,1.22,1.89,1.89,0,0,1-.71,1.47,3.16,3.16,0,0,1-2.12.62,3.4,3.4,0,0,1-2-.52A2.46,2.46,0,0,1,122.49,25.45Zm12.68-2.6-1.62.29a1.16,1.16,0,0,0-.37-.73,1.13,1.13,0,0,0-.75-.25,1.23,1.23,0,0,0-1,.42,2.2,2.2,0,0,0-.37,1.42,2.48,2.48,0,0,0,.37,1.56,1.24,1.24,0,0,0,1,.46,1.11,1.11,0,0,0,.77-.27,1.58,1.58,0,0,0,.42-.92l1.62.28a2.87,2.87,0,0,1-1,1.68,3,3,0,0,1-1.92.57,2.87,2.87,0,0,1-2.18-.86,3.33,3.33,0,0,1-.81-2.38,3.35,3.35,0,0,1,.81-2.4,2.9,2.9,0,0,1,2.2-.86,3,3,0,0,1,1.81.49A2.71,2.71,0,0,1,135.17,22.85Zm4.85,2.4,1.64.28a2.64,2.64,0,0,1-1,1.37,3,3,0,0,1-1.71.47,2.77,2.77,0,0,1-2.4-1.06,3.57,3.57,0,0,1-.62-2.14,3.42,3.42,0,0,1,.81-2.42,2.68,2.68,0,0,1,2-.88,2.75,2.75,0,0,1,2.19.92,4.1,4.1,0,0,1,.77,2.81h-4.12a1.62,1.62,0,0,0,.4,1.14,1.26,1.26,0,0,0,.95.41,1,1,0,0,0,.65-.21A1.32,1.32,0,0,0,140,25.25Zm.1-1.66a1.56,1.56,0,0,0-.37-1.09,1.2,1.2,0,0,0-1.75,0,1.57,1.57,0,0,0-.35,1.07Zm8.63,3.64H147.1V24.05a4.79,4.79,0,0,0-.11-1.3.93.93,0,0,0-.34-.46,1,1,0,0,0-.57-.16,1.37,1.37,0,0,0-.77.23,1.17,1.17,0,0,0-.47.62,5.07,5.07,0,0,0-.13,1.43v2.82h-1.65V21h1.53v.91a2.55,2.55,0,0,1,3-.85,1.65,1.65,0,0,1,.68.5,1.82,1.82,0,0,1,.32.69,5.23,5.23,0,0,1,.09,1.11v3.86Zm5.28-2,1.64.28a2.64,2.64,0,0,1-1,1.37,3,3,0,0,1-1.71.47,2.77,2.77,0,0,1-2.4-1.06,3.57,3.57,0,0,1-.62-2.14,3.42,3.42,0,0,1,.81-2.42,2.68,2.68,0,0,1,2-.88,2.75,2.75,0,0,1,2.19.92,4.1,4.1,0,0,1,.77,2.81h-4.12a1.62,1.62,0,0,0,.4,1.14,1.26,1.26,0,0,0,.95.41,1,1,0,0,0,.65-.21A1.32,1.32,0,0,0,154,25.25Zm.09-1.66a1.56,1.56,0,0,0-.37-1.09,1.2,1.2,0,0,0-1.75,0,1.57,1.57,0,0,0-.35,1.07Zm3,3.64V25.58h1.65v1.65Zm7.85,0V18.64h1.73v8.59Zm9,0h-1.65V24.05a4.79,4.79,0,0,0-.11-1.3.93.93,0,0,0-.34-.46,1,1,0,0,0-.57-.16,1.37,1.37,0,0,0-.77.23,1.17,1.17,0,0,0-.47.62,5.07,5.07,0,0,0-.13,1.43v2.82H168.3V21h1.53v.91a2.55,2.55,0,0,1,3-.85,1.65,1.65,0,0,1,.68.5,1.82,1.82,0,0,1,.32.69,5.23,5.23,0,0,1,.09,1.11v3.86ZM178.51,21v1.31h-1.12v2.51a6.79,6.79,0,0,0,0,.89.35.35,0,0,0,.15.21.44.44,0,0,0,.28.08,2,2,0,0,0,.66-.16l.14,1.28a3.35,3.35,0,0,1-1.3.25,2,2,0,0,1-.8-.15,1.13,1.13,0,0,1-.52-.39,1.5,1.5,0,0,1-.23-.64,7.43,7.43,0,0,1-.05-1.16V22.33H175V21h.76V19.78l1.65-1V21h1.11Zm2.72,6.22h-1.65V21h1.53v.88a2.71,2.71,0,0,1,.71-.83,1.25,1.25,0,0,1,.71-.2,2,2,0,0,1,1.08.31l-.51,1.44a1.46,1.46,0,0,0-.77-.27.91.91,0,0,0-.59.19,1.32,1.32,0,0,0-.38.69,9.88,9.88,0,0,0-.14,2.09v1.92Zm2.71-3.2a3.35,3.35,0,0,1,.4-1.59,2.76,2.76,0,0,1,1.15-1.17,3.42,3.42,0,0,1,1.66-.4,3.1,3.1,0,0,1,2.31.92,3.45,3.45,0,0,1,0,4.66,3.08,3.08,0,0,1-2.29.93,3.59,3.59,0,0,1-1.63-.39,2.69,2.69,0,0,1-1.18-1.13A3.78,3.78,0,0,1,183.94,24Zm1.69.09a2.08,2.08,0,0,0,.44,1.42,1.44,1.44,0,0,0,2.16,0,2.09,2.09,0,0,0,.44-1.43,2.07,2.07,0,0,0-.44-1.41,1.44,1.44,0,0,0-2.16,0A2.08,2.08,0,0,0,185.63,24.12Zm11.73,3.11h-1.53v-.91a2.33,2.33,0,0,1-.9.79,2.36,2.36,0,0,1-1.05.26,2.4,2.4,0,0,1-1.84-.86,3.5,3.5,0,0,1-.76-2.41,3.53,3.53,0,0,1,.74-2.41,2.41,2.41,0,0,1,1.88-.82,2.3,2.3,0,0,1,1.8.87V18.65h1.65v8.58ZM193,24a2.79,2.79,0,0,0,.28,1.44,1.25,1.25,0,0,0,1.11.64,1.23,1.23,0,0,0,1-.48,2.19,2.19,0,0,0,.4-1.44,2.41,2.41,0,0,0-.39-1.54,1.27,1.27,0,0,0-2,0A2.1,2.1,0,0,0,193,24Zm10.12,3.25V26.3a2.52,2.52,0,0,1-.89.79,2.42,2.42,0,0,1-1.17.29,2.19,2.19,0,0,1-1.12-.28,1.67,1.67,0,0,1-.72-.77A3.43,3.43,0,0,1,199,25V21h1.65v2.86a8,8,0,0,0,.09,1.61A.88.88,0,0,0,201,26a1,1,0,0,0,.61.17,1.36,1.36,0,0,0,.76-.23,1.14,1.14,0,0,0,.46-.57,6.8,6.8,0,0,0,.12-1.68V21h1.65v6.22h-1.55Zm8.66-4.38-1.62.29a1.16,1.16,0,0,0-.37-.73,1.13,1.13,0,0,0-.75-.25,1.23,1.23,0,0,0-1,.42,2.2,2.2,0,0,0-.37,1.42,2.48,2.48,0,0,0,.37,1.56,1.24,1.24,0,0,0,1,.46,1.11,1.11,0,0,0,.77-.27,1.58,1.58,0,0,0,.42-.92l1.62.28a2.87,2.87,0,0,1-1,1.68,3,3,0,0,1-1.92.57,2.87,2.87,0,0,1-2.18-.86,3.33,3.33,0,0,1-.81-2.38,3.35,3.35,0,0,1,.81-2.4,2.9,2.9,0,0,1,2.2-.86,3,3,0,0,1,1.81.49A2.76,2.76,0,0,1,211.74,22.85ZM213,20.16V18.64h1.65v1.52Zm0,7.07V21h1.65v6.22Zm9,0h-1.65V24.05a4.79,4.79,0,0,0-.11-1.3.93.93,0,0,0-.34-.46,1,1,0,0,0-.57-.16,1.37,1.37,0,0,0-.77.23,1.17,1.17,0,0,0-.47.62,5.07,5.07,0,0,0-.13,1.43v2.82h-1.65V21h1.53v.91a2.55,2.55,0,0,1,3.05-.85,1.65,1.65,0,0,1,.68.5,1.82,1.82,0,0,1,.32.69,5.23,5.23,0,0,1,.09,1.11v3.86Zm1.52.41,1.88.23a.61.61,0,0,0,.22.45,1.22,1.22,0,0,0,.74.18,1.94,1.94,0,0,0,1-.19.84.84,0,0,0,.33-.42,2.53,2.53,0,0,0,.08-.76v-.91a2.23,2.23,0,0,1-1.86,1,2.29,2.29,0,0,1-2-1.06,3.62,3.62,0,0,1-.57-2.09,3.44,3.44,0,0,1,.75-2.39,2.44,2.44,0,0,1,1.87-.83,2.28,2.28,0,0,1,1.9,1V21h1.54v5.58a5.69,5.69,0,0,1-.18,1.65,2,2,0,0,1-.51.86,2.25,2.25,0,0,1-.88.49,4.55,4.55,0,0,1-1.39.18,3.59,3.59,0,0,1-2.24-.54,1.7,1.7,0,0,1-.66-1.37A.74.74,0,0,1,223.5,27.64ZM225,24a2.29,2.29,0,0,0,.38,1.45,1.17,1.17,0,0,0,1,.46,1.33,1.33,0,0,0,1-.47,2,2,0,0,0,.42-1.4,2.19,2.19,0,0,0-.4-1.44,1.25,1.25,0,0,0-1-.47,1.23,1.23,0,0,0-1,.46A2.16,2.16,0,0,0,225,24Zm16.23,3.24h-1.65V24.05a4.79,4.79,0,0,0-.11-1.3.93.93,0,0,0-.34-.46,1,1,0,0,0-.57-.16,1.37,1.37,0,0,0-.77.23,1.17,1.17,0,0,0-.47.62,5.07,5.07,0,0,0-.13,1.43v2.82h-1.65V21H237v.91a2.55,2.55,0,0,1,3.05-.85,1.65,1.65,0,0,1,.68.5,1.82,1.82,0,0,1,.32.69,5.23,5.23,0,0,1,.09,1.11v3.86Zm5.28-2,1.64.28a2.64,2.64,0,0,1-1,1.37,3,3,0,0,1-1.71.47,2.77,2.77,0,0,1-2.4-1.06,3.57,3.57,0,0,1-.62-2.14,3.42,3.42,0,0,1,.81-2.42,2.68,2.68,0,0,1,2-.88,2.75,2.75,0,0,1,2.19.92,4.1,4.1,0,0,1,.77,2.81h-4.12a1.62,1.62,0,0,0,.4,1.14,1.26,1.26,0,0,0,1,.41,1,1,0,0,0,.65-.21A1.32,1.32,0,0,0,246.48,25.25Zm.09-1.66a1.56,1.56,0,0,0-.37-1.09,1.2,1.2,0,0,0-1.75,0,1.57,1.57,0,0,0-.35,1.07Zm4.14,3.64-2-6.22h1.6l1.17,4.08L252.58,21h1.59l1,4.08L256.4,21H258l-2,6.22h-1.58l-1.07-4-1.05,4ZM.69,35.41H2.2v.85a2.44,2.44,0,0,1,1.94-1,2.05,2.05,0,0,1,1,.25,1.9,1.9,0,0,1,.72.74,2.85,2.85,0,0,1,.88-.74,2.19,2.19,0,0,1,1-.25A2.22,2.22,0,0,1,9,35.55a1.73,1.73,0,0,1,.72.81,3.66,3.66,0,0,1,.17,1.29v4H8.19V38.07A2.71,2.71,0,0,0,8,36.87a.79.79,0,0,0-.7-.35,1.12,1.12,0,0,0-.65.21,1.2,1.2,0,0,0-.44.62,4.48,4.48,0,0,0-.13,1.29v3H4.45V38.22a4.55,4.55,0,0,0-.09-1.17.76.76,0,0,0-.27-.39.9.9,0,0,0-.5-.13,1.22,1.22,0,0,0-.69.21,1.11,1.11,0,0,0-.44.59,4.36,4.36,0,0,0-.13,1.28v3H.69Zm14.88,6.22V40.7a2.52,2.52,0,0,1-.89.79,2.42,2.42,0,0,1-1.17.29,2.19,2.19,0,0,1-1.12-.28,1.67,1.67,0,0,1-.72-.77,3.43,3.43,0,0,1-.22-1.38V35.41H13.1v2.86a8,8,0,0,0,.09,1.61.88.88,0,0,0,.33.47,1,1,0,0,0,.61.17,1.36,1.36,0,0,0,.76-.23,1.14,1.14,0,0,0,.46-.57A6.8,6.8,0,0,0,15.47,38V35.42h1.65v6.22H15.57Zm2.66-1.78,1.65-.25a1.2,1.2,0,0,0,.43.73,1.44,1.44,0,0,0,.9.25,1.66,1.66,0,0,0,1-.23.54.54,0,0,0,.22-.44.43.43,0,0,0-.12-.31,1.34,1.34,0,0,0-.55-.22,9,9,0,0,1-2.53-.8,1.61,1.61,0,0,1-.74-1.4,1.72,1.72,0,0,1,.64-1.36,3,3,0,0,1,2-.55,3.45,3.45,0,0,1,1.9.42,2.14,2.14,0,0,1,.86,1.23l-1.55.29a1,1,0,0,0-.38-.56,1.38,1.38,0,0,0-.79-.19,1.81,1.81,0,0,0-.93.18A.41.41,0,0,0,20,37a.35.35,0,0,0,.16.3,6.24,6.24,0,0,0,1.54.46,4.59,4.59,0,0,1,1.84.73,1.53,1.53,0,0,1,.52,1.22,1.89,1.89,0,0,1-.71,1.47,3.16,3.16,0,0,1-2.12.62,3.4,3.4,0,0,1-2-.52A2.42,2.42,0,0,1,18.23,39.85Zm7.25-5.29V33h1.65v1.52Zm0,7.07V35.41h1.65v6.22Zm8.76-4.38-1.62.29a1.16,1.16,0,0,0-.37-.73,1.13,1.13,0,0,0-.75-.25,1.23,1.23,0,0,0-1,.42,2.2,2.2,0,0,0-.37,1.42A2.48,2.48,0,0,0,30.52,40a1.24,1.24,0,0,0,1,.46,1.11,1.11,0,0,0,.77-.27,1.58,1.58,0,0,0,.42-.92l1.62.28a2.87,2.87,0,0,1-1,1.68,3,3,0,0,1-1.92.57,2.87,2.87,0,0,1-2.18-.86,3.33,3.33,0,0,1-.81-2.38,3.35,3.35,0,0,1,.81-2.4,2.9,2.9,0,0,1,2.2-.86,3,3,0,0,1,1.81.49A2.71,2.71,0,0,1,34.24,37.25Zm5.62,4.38V33h1.65v3.09a2.33,2.33,0,0,1,1.8-.87,2.42,2.42,0,0,1,1.88.82,3.39,3.39,0,0,1,.74,2.36,3.6,3.6,0,0,1-.76,2.46,2.35,2.35,0,0,1-1.84.86,2.22,2.22,0,0,1-1-.27,2.56,2.56,0,0,1-.89-.79v.91H39.86Zm1.64-3.25a2.7,2.7,0,0,0,.3,1.43,1.3,1.3,0,0,0,1.14.66,1.18,1.18,0,0,0,.93-.47,2.27,2.27,0,0,0,.38-1.47A2.43,2.43,0,0,0,43.86,37a1.21,1.21,0,0,0-1-.47,1.23,1.23,0,0,0-1,.46A2.14,2.14,0,0,0,41.5,38.38Zm5-3h1.75l1.49,4.42,1.45-4.42h1.71l-2.2,6-.39,1.08a4.25,4.25,0,0,1-.41.83,1.84,1.84,0,0,1-.45.47,2,2,0,0,1-.63.28,3.12,3.12,0,0,1-.84.1,4.08,4.08,0,0,1-.93-.1l-.15-1.29a3.76,3.76,0,0,0,.7.08,1,1,0,0,0,.85-.34,2.47,2.47,0,0,0,.42-.86Zm17.32,1.84-1.62.29a1.16,1.16,0,0,0-.37-.73,1.13,1.13,0,0,0-.75-.25,1.23,1.23,0,0,0-1,.42,2.2,2.2,0,0,0-.37,1.42A2.48,2.48,0,0,0,60.09,40a1.24,1.24,0,0,0,1,.46,1.11,1.11,0,0,0,.77-.27,1.58,1.58,0,0,0,.42-.92l1.62.28a2.87,2.87,0,0,1-1,1.68,3,3,0,0,1-1.92.57,2.87,2.87,0,0,1-2.18-.86A3.33,3.33,0,0,1,58,38.52a3.35,3.35,0,0,1,.81-2.4,2.9,2.9,0,0,1,2.2-.86,3,3,0,0,1,1.81.49A2.76,2.76,0,0,1,63.81,37.25Zm.87,1.18a3.35,3.35,0,0,1,.4-1.59,2.76,2.76,0,0,1,1.15-1.17,3.42,3.42,0,0,1,1.66-.4,3.1,3.1,0,0,1,2.31.92,3.45,3.45,0,0,1,0,4.66,3.08,3.08,0,0,1-2.29.93,3.59,3.59,0,0,1-1.63-.39,2.69,2.69,0,0,1-1.18-1.13A3.78,3.78,0,0,1,64.68,38.43Zm1.68.09a2.08,2.08,0,0,0,.44,1.42,1.44,1.44,0,0,0,2.16,0,2.51,2.51,0,0,0,0-2.84,1.44,1.44,0,0,0-2.16,0A2.08,2.08,0,0,0,66.36,38.52Zm11.69,3.11H76.4V38.45a4.79,4.79,0,0,0-.11-1.3.93.93,0,0,0-.34-.46,1,1,0,0,0-.57-.16,1.37,1.37,0,0,0-.77.23,1.17,1.17,0,0,0-.47.62A5.07,5.07,0,0,0,74,38.81v2.82H72.36V35.41h1.53v.91a2.55,2.55,0,0,1,3-.85,1.65,1.65,0,0,1,.68.5,1.82,1.82,0,0,1,.32.69A5.23,5.23,0,0,1,78,37.77v3.86Zm7.33,0H83.73V38.45a4.79,4.79,0,0,0-.11-1.3.93.93,0,0,0-.34-.46,1,1,0,0,0-.57-.16,1.37,1.37,0,0,0-.77.23,1.17,1.17,0,0,0-.47.62,5.07,5.07,0,0,0-.13,1.43v2.82H79.69V35.41h1.53v.91a2.55,2.55,0,0,1,3-.85A1.65,1.65,0,0,1,85,36a1.82,1.82,0,0,1,.32.69,5.23,5.23,0,0,1,.09,1.11v3.86Zm5.27-2,1.64.28a2.64,2.64,0,0,1-1,1.37,3,3,0,0,1-1.71.47,2.77,2.77,0,0,1-2.4-1.06,3.57,3.57,0,0,1-.62-2.14,3.42,3.42,0,0,1,.81-2.42,2.68,2.68,0,0,1,2-.88,2.75,2.75,0,0,1,2.19.92A4.1,4.1,0,0,1,92.37,39H88.25a1.62,1.62,0,0,0,.4,1.14,1.26,1.26,0,0,0,.95.41,1,1,0,0,0,.65-.21A1.32,1.32,0,0,0,90.65,39.65ZM90.74,38a1.56,1.56,0,0,0-.37-1.09,1.2,1.2,0,0,0-1.75,0A1.57,1.57,0,0,0,88.27,38Zm8.41-.74-1.62.29a1.16,1.16,0,0,0-.37-.73,1.13,1.13,0,0,0-.75-.25,1.23,1.23,0,0,0-1,.42,2.2,2.2,0,0,0-.37,1.42A2.48,2.48,0,0,0,95.43,40a1.24,1.24,0,0,0,1,.46,1.11,1.11,0,0,0,.77-.27,1.58,1.58,0,0,0,.42-.92l1.62.28a2.87,2.87,0,0,1-1,1.68,3,3,0,0,1-1.92.57,2.87,2.87,0,0,1-2.18-.86,3.33,3.33,0,0,1-.81-2.38,3.35,3.35,0,0,1,.81-2.4,2.9,2.9,0,0,1,2.2-.86,3,3,0,0,1,1.81.49A2.76,2.76,0,0,1,99.15,37.25Zm4.1-1.84v1.31h-1.12v2.51a6.79,6.79,0,0,0,0,.89.35.35,0,0,0,.15.21.44.44,0,0,0,.28.08,2,2,0,0,0,.66-.16l.14,1.28a3.35,3.35,0,0,1-1.3.25,2,2,0,0,1-.8-.15,1.13,1.13,0,0,1-.52-.39,1.5,1.5,0,0,1-.23-.64,7.43,7.43,0,0,1-.05-1.16V36.73h-.76V35.42h.76V34.18l1.65-1v2.2h1.11Zm1.14-.85V33H106v1.52Zm0,7.07V35.41H106v6.22Zm9,0h-1.65V38.45a4.79,4.79,0,0,0-.11-1.3.93.93,0,0,0-.34-.46,1,1,0,0,0-.57-.16,1.37,1.37,0,0,0-.77.23,1.17,1.17,0,0,0-.47.62,5.07,5.07,0,0,0-.13,1.43v2.82h-1.65V35.41h1.53v.91a2.55,2.55,0,0,1,3-.85,1.65,1.65,0,0,1,.68.5,1.82,1.82,0,0,1,.32.69,5.23,5.23,0,0,1,.09,1.11v3.86Zm1.52.41,1.88.23a.61.61,0,0,0,.22.45,1.22,1.22,0,0,0,.74.18,1.94,1.94,0,0,0,1-.19.84.84,0,0,0,.33-.42,2.53,2.53,0,0,0,.08-.76v-.91a2.23,2.23,0,0,1-1.86,1,2.29,2.29,0,0,1-2-1.06,3.62,3.62,0,0,1-.57-2.09,3.44,3.44,0,0,1,.75-2.39,2.44,2.44,0,0,1,1.87-.83,2.28,2.28,0,0,1,1.9,1V35.4h1.54V41a5.69,5.69,0,0,1-.18,1.65,2,2,0,0,1-.51.86,2.25,2.25,0,0,1-.88.49,4.55,4.55,0,0,1-1.39.18,3.59,3.59,0,0,1-2.24-.54,1.7,1.7,0,0,1-.66-1.37Zm1.47-3.65a2.29,2.29,0,0,0,.38,1.45,1.17,1.17,0,0,0,1,.46,1.33,1.33,0,0,0,1-.47,2,2,0,0,0,.42-1.4,2.19,2.19,0,0,0-.4-1.44,1.25,1.25,0,0,0-1-.47,1.23,1.23,0,0,0-1,.46A2.16,2.16,0,0,0,116.37,38.39Zm14.55,3.24V40.7a2.52,2.52,0,0,1-.89.79,2.42,2.42,0,0,1-1.17.29,2.19,2.19,0,0,1-1.12-.28,1.67,1.67,0,0,1-.72-.77,3.43,3.43,0,0,1-.22-1.38V35.41h1.65v2.86a8,8,0,0,0,.09,1.61.88.88,0,0,0,.33.47,1,1,0,0,0,.61.17,1.36,1.36,0,0,0,.76-.23,1.14,1.14,0,0,0,.46-.57,6.8,6.8,0,0,0,.12-1.68V35.42h1.65v6.22h-1.55Zm2.66-1.78,1.65-.25a1.2,1.2,0,0,0,.43.73,1.44,1.44,0,0,0,.9.25,1.66,1.66,0,0,0,1-.23.54.54,0,0,0,.22-.44.43.43,0,0,0-.12-.31,1.34,1.34,0,0,0-.55-.22,9,9,0,0,1-2.53-.8,1.61,1.61,0,0,1-.74-1.4,1.72,1.72,0,0,1,.64-1.36,3,3,0,0,1,2-.55,3.45,3.45,0,0,1,1.9.42,2.14,2.14,0,0,1,.86,1.23l-1.55.29a1,1,0,0,0-.38-.56,1.38,1.38,0,0,0-.79-.19,1.81,1.81,0,0,0-.93.18.41.41,0,0,0-.19.33.35.35,0,0,0,.16.3,6.24,6.24,0,0,0,1.54.46,4.59,4.59,0,0,1,1.84.73,1.53,1.53,0,0,1,.52,1.22,1.89,1.89,0,0,1-.71,1.47,3.16,3.16,0,0,1-2.12.62,3.4,3.4,0,0,1-2-.52A2.42,2.42,0,0,1,133.58,39.85Zm10.86-.2,1.64.28a2.64,2.64,0,0,1-1,1.37,3,3,0,0,1-1.71.47,2.77,2.77,0,0,1-2.4-1.06,3.57,3.57,0,0,1-.62-2.14,3.42,3.42,0,0,1,.81-2.42,2.68,2.68,0,0,1,2-.88,2.75,2.75,0,0,1,2.19.92,4.1,4.1,0,0,1,.77,2.81H142a1.62,1.62,0,0,0,.4,1.14,1.26,1.26,0,0,0,.95.41,1,1,0,0,0,.65-.21A1.32,1.32,0,0,0,144.44,39.65Zm.09-1.66a1.56,1.56,0,0,0-.37-1.09,1.2,1.2,0,0,0-1.75,0,1.57,1.57,0,0,0-.35,1.07Zm4.55,3.64h-1.65V35.41H149v.88a2.71,2.71,0,0,1,.71-.83,1.25,1.25,0,0,1,.71-.2,2,2,0,0,1,1.08.31L151,37a1.46,1.46,0,0,0-.77-.27.91.91,0,0,0-.59.19,1.32,1.32,0,0,0-.38.69,9.88,9.88,0,0,0-.14,2.09v1.92Zm2.52-1.78,1.65-.25a1.2,1.2,0,0,0,.43.73,1.44,1.44,0,0,0,.9.25,1.66,1.66,0,0,0,1-.23.54.54,0,0,0,.22-.44.43.43,0,0,0-.12-.31,1.34,1.34,0,0,0-.55-.22,9,9,0,0,1-2.53-.8,1.61,1.61,0,0,1-.74-1.4,1.72,1.72,0,0,1,.64-1.36,3,3,0,0,1,2-.55,3.45,3.45,0,0,1,1.9.42,2.14,2.14,0,0,1,.86,1.23l-1.55.29a1,1,0,0,0-.38-.56,1.38,1.38,0,0,0-.79-.19,1.81,1.81,0,0,0-.93.18.41.41,0,0,0-.19.33.35.35,0,0,0,.16.3,6.24,6.24,0,0,0,1.54.46,4.59,4.59,0,0,1,1.84.73,1.53,1.53,0,0,1,.52,1.22,1.89,1.89,0,0,1-.71,1.47,3.16,3.16,0,0,1-2.12.62,3.4,3.4,0,0,1-2-.52A2.42,2.42,0,0,1,151.6,39.85Zm14.55-4.44v1.31H165v2.51a6.79,6.79,0,0,0,0,.89.35.35,0,0,0,.15.21.44.44,0,0,0,.28.08,2,2,0,0,0,.66-.16l.14,1.28a3.35,3.35,0,0,1-1.3.25,2,2,0,0,1-.8-.15,1.13,1.13,0,0,1-.52-.39,1.5,1.5,0,0,1-.23-.64,7.43,7.43,0,0,1-.05-1.16V36.73h-.76V35.42h.76V34.18l1.65-1v2.2h1.11Zm.76,3a3.35,3.35,0,0,1,.4-1.59,2.76,2.76,0,0,1,1.15-1.17,3.42,3.42,0,0,1,1.66-.4,3.1,3.1,0,0,1,2.31.92,3.45,3.45,0,0,1,0,4.66,3.08,3.08,0,0,1-2.29.93,3.59,3.59,0,0,1-1.63-.39,2.69,2.69,0,0,1-1.18-1.13A3.78,3.78,0,0,1,166.91,38.43Zm1.69.09a2.08,2.08,0,0,0,.44,1.42,1.44,1.44,0,0,0,2.16,0,2.51,2.51,0,0,0,0-2.84,1.44,1.44,0,0,0-2.16,0A2.08,2.08,0,0,0,168.6,38.52Zm16.13,3.11h-1.65V38.45a4.79,4.79,0,0,0-.11-1.3.93.93,0,0,0-.34-.46,1,1,0,0,0-.57-.16,1.37,1.37,0,0,0-.77.23,1.17,1.17,0,0,0-.47.62,5.07,5.07,0,0,0-.13,1.43v2.82H179V35.41h1.53v.91a2.55,2.55,0,0,1,3.05-.85,1.65,1.65,0,0,1,.68.5,1.82,1.82,0,0,1,.32.69,5.23,5.23,0,0,1,.09,1.11v3.86Zm5.27-2,1.64.28a2.64,2.64,0,0,1-1,1.37,3,3,0,0,1-1.71.47,2.77,2.77,0,0,1-2.4-1.06,3.57,3.57,0,0,1-.62-2.14,3.42,3.42,0,0,1,.81-2.42,2.68,2.68,0,0,1,2-.88,2.75,2.75,0,0,1,2.19.92,4.1,4.1,0,0,1,.77,2.81H187.6a1.62,1.62,0,0,0,.4,1.14,1.26,1.26,0,0,0,.95.41,1,1,0,0,0,.65-.21A1.32,1.32,0,0,0,190,39.65Zm.09-1.66a1.56,1.56,0,0,0-.37-1.09,1.2,1.2,0,0,0-1.75,0,1.57,1.57,0,0,0-.35,1.07Zm4.21-.68L192.81,37a2.36,2.36,0,0,1,.87-1.34,3.17,3.17,0,0,1,1.83-.43,4,4,0,0,1,1.64.26,1.62,1.62,0,0,1,.76.66,3.34,3.34,0,0,1,.22,1.47l0,1.92a6.89,6.89,0,0,0,.08,1.21,3.1,3.1,0,0,0,.3.83h-1.63c0-.11-.1-.27-.16-.49l-.06-.19a3.09,3.09,0,0,1-.9.62,2.53,2.53,0,0,1-1,.21,2.08,2.08,0,0,1-1.51-.52,1.77,1.77,0,0,1-.55-1.32,1.74,1.74,0,0,1,.25-.94,1.61,1.61,0,0,1,.71-.63,6,6,0,0,1,1.31-.38,9.18,9.18,0,0,0,1.6-.4v-.16a.88.88,0,0,0-.23-.68,1.35,1.35,0,0,0-.88-.2,1.26,1.26,0,0,0-.69.17A1.13,1.13,0,0,0,194.3,37.31Zm2.2,1.33c-.21.07-.54.15-1,.25a2.88,2.88,0,0,0-.9.29.7.7,0,0,0-.32.58.83.83,0,0,0,.26.6.89.89,0,0,0,.66.25,1.45,1.45,0,0,0,.85-.29,1,1,0,0,0,.39-.54,3.48,3.48,0,0,0,.06-.8Zm4.82,3h-1.65V35.41h1.53v.88a2.71,2.71,0,0,1,.71-.83,1.25,1.25,0,0,1,.71-.2,2,2,0,0,1,1.08.31L203.19,37a1.46,1.46,0,0,0-.77-.27.91.91,0,0,0-.59.19,1.32,1.32,0,0,0-.38.69,9.88,9.88,0,0,0-.14,2.09v1.92Zm3,0V33H206v3.09a2.33,2.33,0,0,1,1.8-.87,2.42,2.42,0,0,1,1.88.82,3.39,3.39,0,0,1,.74,2.36,3.6,3.6,0,0,1-.76,2.46,2.35,2.35,0,0,1-1.84.86,2.22,2.22,0,0,1-1.05-.27,2.56,2.56,0,0,1-.89-.79v.91h-1.53ZM206,38.38a2.7,2.7,0,0,0,.3,1.43,1.3,1.3,0,0,0,1.14.66,1.18,1.18,0,0,0,.93-.47,2.27,2.27,0,0,0,.38-1.47,2.43,2.43,0,0,0-.39-1.54,1.21,1.21,0,0,0-1-.47,1.23,1.23,0,0,0-1,.46A2.14,2.14,0,0,0,206,38.38Zm5-3h1.75l1.49,4.42,1.45-4.42h1.71l-2.2,6-.39,1.08a4.25,4.25,0,0,1-.41.83,1.84,1.84,0,0,1-.45.47,2,2,0,0,1-.63.28,3.12,3.12,0,0,1-.84.1,4.08,4.08,0,0,1-.93-.1l-.15-1.29a3.76,3.76,0,0,0,.7.08,1,1,0,0,0,.85-.34,2.47,2.47,0,0,0,.42-.86Zm13.13,1.9L222.6,37a2.36,2.36,0,0,1,.87-1.34,3.17,3.17,0,0,1,1.83-.43,4,4,0,0,1,1.64.26,1.62,1.62,0,0,1,.76.66,3.34,3.34,0,0,1,.22,1.47l0,1.92a6.89,6.89,0,0,0,.08,1.21,3.1,3.1,0,0,0,.3.83h-1.63c0-.11-.1-.27-.16-.49l-.06-.19a3.09,3.09,0,0,1-.9.62,2.53,2.53,0,0,1-1,.21,2.08,2.08,0,0,1-1.51-.52,1.77,1.77,0,0,1-.55-1.32,1.74,1.74,0,0,1,.25-.94,1.61,1.61,0,0,1,.71-.63,6,6,0,0,1,1.31-.38,9.18,9.18,0,0,0,1.6-.4v-.16a.88.88,0,0,0-.23-.68,1.35,1.35,0,0,0-.88-.2,1.26,1.26,0,0,0-.69.17A1.13,1.13,0,0,0,224.09,37.31Zm2.2,1.33c-.21.07-.54.15-1,.25a2.88,2.88,0,0,0-.9.29.7.7,0,0,0-.32.58.83.83,0,0,0,.26.6.89.89,0,0,0,.66.25,1.45,1.45,0,0,0,.85-.29,1,1,0,0,0,.39-.54,3.48,3.48,0,0,0,.06-.8Zm4.82,3h-1.65V35.41H231v.88a2.71,2.71,0,0,1,.71-.83,1.25,1.25,0,0,1,.71-.2,2,2,0,0,1,1.08.31L233,37a1.46,1.46,0,0,0-.77-.27.91.91,0,0,0-.59.19,1.32,1.32,0,0,0-.38.69,9.88,9.88,0,0,0-.14,2.09v1.92Zm5.95-6.22v1.31h-1.12v2.51a6.79,6.79,0,0,0,0,.89.35.35,0,0,0,.15.21.44.44,0,0,0,.28.08,2,2,0,0,0,.66-.16l.14,1.28a3.35,3.35,0,0,1-1.3.25,2,2,0,0,1-.8-.15,1.13,1.13,0,0,1-.52-.39,1.5,1.5,0,0,1-.23-.64,7.43,7.43,0,0,1,0-1.16V36.73h-.76V35.42h.76V34.18l1.65-1v2.2h1.11Zm1.14-.85V33h1.65v1.52Zm0,7.07V35.41h1.65v6.22ZM241,39.85l1.65-.25a1.2,1.2,0,0,0,.43.73,1.44,1.44,0,0,0,.9.25,1.66,1.66,0,0,0,1-.23.54.54,0,0,0,.22-.44.43.43,0,0,0-.12-.31,1.34,1.34,0,0,0-.55-.22,9,9,0,0,1-2.53-.8,1.61,1.61,0,0,1-.74-1.4,1.72,1.72,0,0,1,.64-1.36,3,3,0,0,1,2-.55,3.45,3.45,0,0,1,1.9.42,2.14,2.14,0,0,1,.86,1.23L245,37.2a1,1,0,0,0-.38-.56,1.38,1.38,0,0,0-.79-.19,1.81,1.81,0,0,0-.93.18.41.41,0,0,0-.19.33.35.35,0,0,0,.16.3,6.24,6.24,0,0,0,1.54.46,4.59,4.59,0,0,1,1.84.73,1.53,1.53,0,0,1,.52,1.22,1.89,1.89,0,0,1-.71,1.47,3.16,3.16,0,0,1-2.12.62,3.4,3.4,0,0,1-2-.52A2.44,2.44,0,0,1,241,39.85Zm10.11-4.44v1.31h-1.12v2.51a6.79,6.79,0,0,0,0,.89.35.35,0,0,0,.15.21.44.44,0,0,0,.28.08,2,2,0,0,0,.66-.16l.14,1.28a3.35,3.35,0,0,1-1.3.25,2,2,0,0,1-.8-.15,1.13,1.13,0,0,1-.52-.39,1.5,1.5,0,0,1-.23-.64,7.43,7.43,0,0,1,0-1.16V36.73h-.76V35.42h.76V34.18l1.65-1v2.2h1.11Zm.56,4.44,1.65-.25a1.2,1.2,0,0,0,.43.73,1.44,1.44,0,0,0,.9.25,1.66,1.66,0,0,0,1-.23.54.54,0,0,0,.22-.44.43.43,0,0,0-.12-.31,1.34,1.34,0,0,0-.55-.22,9,9,0,0,1-2.53-.8,1.61,1.61,0,0,1-.74-1.4,1.72,1.72,0,0,1,.64-1.36,3,3,0,0,1,2-.55,3.45,3.45,0,0,1,1.9.42,2.14,2.14,0,0,1,.86,1.23l-1.55.29a1,1,0,0,0-.38-.56,1.38,1.38,0,0,0-.79-.19,1.81,1.81,0,0,0-.93.18.41.41,0,0,0-.19.33.35.35,0,0,0,.16.3,6.24,6.24,0,0,0,1.54.46,4.59,4.59,0,0,1,1.84.73,1.53,1.53,0,0,1,.52,1.22,1.89,1.89,0,0,1-.71,1.47,3.16,3.16,0,0,1-2.12.62,3.4,3.4,0,0,1-2-.52A2.46,2.46,0,0,1,251.62,39.85ZM2,51.71.55,51.44a2.36,2.36,0,0,1,.87-1.34,3.17,3.17,0,0,1,1.83-.43,4,4,0,0,1,1.64.26,1.62,1.62,0,0,1,.76.66,3.34,3.34,0,0,1,.22,1.47l0,1.92a6.89,6.89,0,0,0,.08,1.21,3.1,3.1,0,0,0,.3.83H4.59c0-.11-.1-.27-.16-.49l-.06-.19a3.09,3.09,0,0,1-.9.62,2.53,2.53,0,0,1-1,.21,2.08,2.08,0,0,1-1.51-.52,1.77,1.77,0,0,1-.55-1.32,1.74,1.74,0,0,1,.25-.94,1.61,1.61,0,0,1,.71-.63,6,6,0,0,1,1.31-.38,9.18,9.18,0,0,0,1.6-.4v-.16A.88.88,0,0,0,4,51.14a1.35,1.35,0,0,0-.88-.2,1.26,1.26,0,0,0-.69.17A1.12,1.12,0,0,0,2,51.71ZM4.24,53c-.21.07-.54.15-1,.25a2.88,2.88,0,0,0-.9.29.7.7,0,0,0-.32.58.83.83,0,0,0,.26.6.89.89,0,0,0,.66.25,1.45,1.45,0,0,0,.85-.29,1,1,0,0,0,.39-.54,3.48,3.48,0,0,0,.06-.8Zm8.9,3H11.5V52.85a4.79,4.79,0,0,0-.11-1.3.93.93,0,0,0-.34-.46,1,1,0,0,0-.57-.16,1.37,1.37,0,0,0-.77.23,1.17,1.17,0,0,0-.47.62,5.07,5.07,0,0,0-.13,1.43V56H7.47V49.81H9v.91a2.55,2.55,0,0,1,3.05-.85,1.65,1.65,0,0,1,.68.5,1.82,1.82,0,0,1,.32.69,5.23,5.23,0,0,1,.09,1.11Zm7.38,0H19v-.91a2.33,2.33,0,0,1-.9.79,2.36,2.36,0,0,1-1.05.26,2.4,2.4,0,0,1-1.84-.86,4.25,4.25,0,0,1,0-4.82,2.41,2.41,0,0,1,1.88-.82,2.3,2.3,0,0,1,1.8.87V47.45h1.65V56Zm-4.4-3.25a2.79,2.79,0,0,0,.28,1.44,1.25,1.25,0,0,0,1.11.64,1.23,1.23,0,0,0,1-.48,2.19,2.19,0,0,0,.4-1.44,2.41,2.41,0,0,0-.39-1.54,1.27,1.27,0,0,0-2,0A2.1,2.1,0,0,0,16.12,52.78Zm8.78,1.47L26.55,54a1.2,1.2,0,0,0,.43.73,1.44,1.44,0,0,0,.9.25,1.66,1.66,0,0,0,1-.23.54.54,0,0,0,.22-.44.43.43,0,0,0-.12-.31,1.34,1.34,0,0,0-.55-.22,9,9,0,0,1-2.53-.8,1.61,1.61,0,0,1-.74-1.4,1.72,1.72,0,0,1,.64-1.36,3,3,0,0,1,2-.55,3.45,3.45,0,0,1,1.9.42,2.14,2.14,0,0,1,.86,1.23L29,51.61a1,1,0,0,0-.38-.56,1.38,1.38,0,0,0-.79-.19,1.81,1.81,0,0,0-.93.18.41.41,0,0,0-.19.33.35.35,0,0,0,.16.3,6.24,6.24,0,0,0,1.54.46,4.59,4.59,0,0,1,1.84.73,1.53,1.53,0,0,1,.52,1.22A1.89,1.89,0,0,1,30,55.55a3.16,3.16,0,0,1-2.12.62,3.4,3.4,0,0,1-2-.52A2.42,2.42,0,0,1,24.9,54.25Zm8.89-6.81V50.6a2.43,2.43,0,0,1,1.9-.93,2.46,2.46,0,0,1,1,.21,1.67,1.67,0,0,1,.69.54,1.92,1.92,0,0,1,.32.73,6.37,6.37,0,0,1,.08,1.24V56H36.16V52.75a5,5,0,0,0-.09-1.24.8.8,0,0,0-.33-.42,1.1,1.1,0,0,0-.59-.16,1.38,1.38,0,0,0-.73.2,1.15,1.15,0,0,0-.47.6,3.58,3.58,0,0,0-.15,1.19V56H32.15V47.45h1.64Zm5.31,5.39a3.35,3.35,0,0,1,.4-1.59,2.76,2.76,0,0,1,1.15-1.17,3.42,3.42,0,0,1,1.66-.4,3.1,3.1,0,0,1,2.31.92,3.45,3.45,0,0,1,0,4.66,3.08,3.08,0,0,1-2.29.93,3.59,3.59,0,0,1-1.63-.39,2.69,2.69,0,0,1-1.18-1.13A3.78,3.78,0,0,1,39.1,52.83Zm1.69.09a2.08,2.08,0,0,0,.44,1.42,1.44,1.44,0,0,0,2.16,0,2.51,2.51,0,0,0,0-2.84,1.44,1.44,0,0,0-2.16,0A2.08,2.08,0,0,0,40.79,52.92ZM48,56l-2-6.22h1.6l1.17,4.08,1.07-4.08h1.59l1,4.08,1.19-4.08h1.62l-2,6.22H51.7l-1.07-4-1.05,4Zm7.59-1.78L57.22,54a1.2,1.2,0,0,0,.43.73,1.44,1.44,0,0,0,.9.25,1.66,1.66,0,0,0,1-.23.54.54,0,0,0,.22-.44.43.43,0,0,0-.12-.31,1.34,1.34,0,0,0-.55-.22,9,9,0,0,1-2.53-.8,1.61,1.61,0,0,1-.74-1.4,1.72,1.72,0,0,1,.64-1.36,3,3,0,0,1,2-.55,3.45,3.45,0,0,1,1.9.42,2.14,2.14,0,0,1,.86,1.23l-1.55.29a1,1,0,0,0-.38-.56,1.38,1.38,0,0,0-.79-.19,1.81,1.81,0,0,0-.93.18.41.41,0,0,0-.19.33.35.35,0,0,0,.16.3,6.24,6.24,0,0,0,1.54.46,4.59,4.59,0,0,1,1.84.73,1.53,1.53,0,0,1,.52,1.22,1.89,1.89,0,0,1-.71,1.47,3.16,3.16,0,0,1-2.12.62,3.4,3.4,0,0,1-2-.52A2.48,2.48,0,0,1,55.56,54.25ZM62.82,56V54.38h1.65V56Z" transform="translate(0 -4.09)"/></svg>