<?xml version="1.0" encoding="utf-8"?>
<!-- Generator: Adobe Illustrator 25.2.0, SVG Export Plug-In . SVG Version: 6.00 Build 0)  -->
<svg version="1.1" id="Layer_1" xmlns="http://www.w3.org/2000/svg" xmlns:xlink="http://www.w3.org/1999/xlink" x="0px" y="0px"
	 viewBox="0 0 258 59.2" style="enable-background:new 0 0 258 59.2;" xml:space="preserve">
<style type="text/css">
	.st0{fill:url(#SVGID_1_);}
</style>
<linearGradient id="SVGID_1_" gradientUnits="userSpaceOnUse" x1="0" y1="31.865" x2="258.02" y2="31.865" gradientTransform="matrix(1 0 0 -1 0 62)">
	<stop  offset="0" style="stop-color:#2E3192"/>
	<stop  offset="8.750000e-02" style="stop-color:#3A3092"/>
	<stop  offset="0.2452" style="stop-color:#562E91"/>
	<stop  offset="0.4549" style="stop-color:#7C2A90"/>
	<stop  offset="0.7088" style="stop-color:#AB218E"/>
	<stop  offset="1" style="stop-color:#EC008C"/>
</linearGradient>
<path class="st0" d="M0.4,10l1.7-0.2c0.1,0.6,0.3,1,0.6,1.2s0.7,0.4,1.3,0.4c0.6,0,1-0.1,1.3-0.4s0.4-0.5,0.4-0.8
	c0-0.2-0.1-0.4-0.2-0.5S5.1,9.6,4.8,9.4C4.6,9.4,4.2,9.2,3.4,9.1c-0.9-0.2-1.6-0.5-2-0.8C1,7.8,0.7,7.2,0.7,6.5
	c0-0.4,0.1-0.8,0.4-1.2s0.6-0.7,1.1-0.9s1-0.3,1.7-0.3c1.1,0,1.9,0.2,2.4,0.7s0.8,1.1,0.9,1.9L5.4,6.8C5.3,6.3,5.2,6,4.9,5.8
	S4.3,5.5,3.8,5.5c-0.5,0-0.9,0.1-1.2,0.3C2.4,6,2.3,6.2,2.3,6.4c0,0.2,0.1,0.4,0.3,0.5c0.2,0.2,0.8,0.4,1.6,0.6s1.5,0.4,1.9,0.6
	C6.5,8.3,6.8,8.6,7,9s0.3,0.8,0.3,1.4c0,0.5-0.1,0.9-0.4,1.4s-0.7,0.8-1.2,1S4.7,13,3.9,13c-1.1,0-1.9-0.2-2.5-0.8S0.5,11,0.4,10z
	 M12.4,10.9l1.6,0.3c-0.2,0.6-0.5,1.1-1,1.4S12,13,11.4,13c-1.1,0-1.9-0.4-2.4-1.1c-0.4-0.6-0.6-1.3-0.6-2.1c0-1,0.3-1.8,0.8-2.4
	s1.2-0.9,2-0.9c0.9,0,1.7,0.3,2.2,0.9s0.8,1.6,0.8,2.8H10c0,0.5,0.1,0.9,0.4,1.1s0.6,0.4,0.9,0.4c0.3,0,0.5-0.1,0.6-0.2
	S12.3,11.2,12.4,10.9z M12.5,9.2c0-0.5-0.1-0.8-0.4-1.1c-0.2-0.2-0.5-0.4-0.9-0.4c-0.4,0-0.7,0.1-0.9,0.4C10.2,8.4,10,8.7,10,9.2
	H12.5z M20.9,8.4l-1.6,0.3c0-0.3-0.2-0.6-0.4-0.7s-0.4-0.2-0.8-0.2c-0.4,0-0.7,0.1-1,0.4c-0.2,0.3-0.4,0.8-0.4,1.4
	c0,0.7,0.1,1.3,0.4,1.6s0.6,0.5,1,0.5c0.3,0,0.6-0.1,0.8-0.3s0.3-0.5,0.4-0.9l1.6,0.3c-0.2,0.7-0.5,1.3-1,1.7S18.9,13,18.1,13
	c-0.9,0-1.6-0.3-2.2-0.9s-0.8-1.4-0.8-2.4c0-1,0.3-1.8,0.8-2.4c0.5-0.6,1.3-0.9,2.2-0.9c0.8,0,1.4,0.2,1.8,0.5S20.7,7.8,20.9,8.4z
	 M23.7,12.8h-1.6V6.6h1.5v0.9c0.3-0.4,0.5-0.7,0.7-0.8s0.5-0.2,0.7-0.2c0.4,0,0.7,0.1,1.1,0.3l-0.5,1.4c-0.3-0.2-0.5-0.3-0.8-0.3
	S24.4,8,24.2,8.1S24,8.5,23.9,8.8s-0.1,1-0.1,2.1L23.7,12.8L23.7,12.8z M30.4,10.9l1.6,0.3c-0.2,0.6-0.5,1.1-1,1.4S30,13,29.4,13
	c-1.1,0-1.9-0.4-2.4-1.1c-0.4-0.6-0.6-1.3-0.6-2.1c0-1,0.3-1.8,0.8-2.4s1.2-0.9,2-0.9c0.9,0,1.7,0.3,2.2,0.9s0.8,1.6,0.8,2.8H28
	c0,0.5,0.1,0.9,0.4,1.1s0.6,0.4,1,0.4c0.3,0,0.5-0.1,0.6-0.2S30.3,11.2,30.4,10.9z M30.5,9.2c0-0.5-0.1-0.8-0.4-1.1
	c-0.2-0.2-0.5-0.4-0.9-0.4c-0.4,0-0.7,0.1-0.9,0.4s-0.4,0.6-0.4,1.1H30.5z M36.4,6.6v1.3h-1.1v2.5c0,0.5,0,0.8,0,0.9
	s0.1,0.1,0.2,0.2s0.2,0.1,0.3,0.1c0.2,0,0.4-0.1,0.7-0.2l0.1,1.3c-0.4,0.2-0.8,0.2-1.3,0.2c-0.3,0-0.6-0.1-0.8-0.1s-0.4-0.2-0.5-0.4
	s-0.2-0.4-0.2-0.6c0-0.2,0-0.6,0-1.2V7.9h-0.8V6.6h0.8V5.4l1.7-1v2.2C35.3,6.6,36.4,6.6,36.4,6.6z M40.8,10l1.7-0.2
	c0.1,0.6,0.3,1,0.6,1.2s0.7,0.4,1.3,0.4c0.6,0,1-0.1,1.3-0.4s0.4-0.5,0.4-0.8c0-0.2-0.1-0.4-0.2-0.5s-0.3-0.3-0.6-0.4
	c-0.2-0.1-0.7-0.2-1.4-0.4c-0.9-0.2-1.6-0.5-2-0.9c-0.5-0.5-0.8-1.1-0.8-1.7c0-0.4,0.1-0.8,0.4-1.2s0.6-0.7,1.1-0.9s1-0.3,1.7-0.3
	c1.1,0,1.9,0.2,2.4,0.7s0.8,1.1,0.9,1.9l-1.7,0.1c-0.1-0.4-0.2-0.8-0.5-0.9s-0.6-0.3-1.1-0.3c-0.5,0-0.9,0.1-1.2,0.3
	c-0.2,0.1-0.3,0.3-0.3,0.5c0,0.2,0.1,0.4,0.3,0.5c0.2,0.2,0.8,0.4,1.6,0.6s1.5,0.4,1.9,0.6c0.4,0.2,0.7,0.5,1,0.9s0.3,0.8,0.3,1.4
	c0,0.5-0.1,0.9-0.4,1.4s-0.7,0.8-1.2,1S45.1,13,44.4,13c-1.1,0-1.9-0.2-2.5-0.8S40.9,11,40.8,10z M50.9,4.2v3.2
	c0.5-0.6,1.2-0.9,1.9-0.9c0.4,0,0.7,0.1,1,0.2s0.5,0.3,0.7,0.5s0.3,0.5,0.3,0.7c0.1,0.3,0.1,0.7,0.1,1.2v3.7h-1.7V9.5
	c0-0.6,0-1.1-0.1-1.2S53,8,52.8,7.9s-0.4-0.2-0.6-0.2c-0.3,0-0.5,0.1-0.7,0.2c-0.2,0.1-0.4,0.3-0.5,0.6s-0.2,0.7-0.2,1.2v3.1h-1.7
	V4.2H50.9z M56.2,9.6c0-0.6,0.1-1.1,0.4-1.6s0.7-0.9,1.2-1.2s1-0.4,1.7-0.4c0.9,0,1.7,0.3,2.3,0.9s0.9,1.4,0.9,2.3
	c0,0.9-0.3,1.7-0.9,2.3S60.4,13,59.4,13c-0.6,0-1.1-0.1-1.6-0.4s-0.9-0.6-1.2-1.1S56.2,10.4,56.2,9.6z M57.9,9.7
	c0,0.6,0.2,1.1,0.4,1.4s0.7,0.5,1.1,0.5s0.8-0.2,1.1-0.5s0.4-0.8,0.4-1.4c0-0.6-0.2-1.1-0.4-1.4c-0.3-0.3-0.7-0.5-1.1-0.5
	S58.6,8,58.3,8.3C58,8.6,57.9,9.1,57.9,9.7z M65.1,12.8l-2-6.2h1.6l1.2,4.1l1.1-4.1h1.6l1,4.1l1.2-4.1h1.6l-2,6.2h-1.6l-1.1-4
	l-1.1,4H65.1z M77,5.8V4.2h1.7v1.5C78.7,5.8,77,5.8,77,5.8z M77,12.8V6.6h1.7v6.2H77z M79.8,11.1l1.7-0.2c0.1,0.3,0.2,0.6,0.4,0.7
	s0.5,0.2,0.9,0.2c0.4,0,0.8-0.1,1-0.2c0.1-0.1,0.2-0.3,0.2-0.4c0-0.1,0-0.2-0.1-0.3c-0.1-0.1-0.3-0.1-0.6-0.2
	c-1.3-0.3-2.2-0.6-2.5-0.8C80.2,9.4,80,9,80,8.4c0-0.5,0.2-1,0.6-1.4s1.1-0.6,2-0.6c0.8,0,1.5,0.1,1.9,0.4s0.7,0.7,0.9,1.2l-1.6,0.3
	c-0.1-0.2-0.2-0.4-0.4-0.6S83,7.6,82.6,7.6c-0.4,0-0.7,0.1-0.9,0.2c-0.1,0.1-0.2,0.2-0.2,0.3c0,0.1,0.1,0.2,0.2,0.3
	c0.2,0.1,0.7,0.3,1.5,0.5s1.5,0.4,1.8,0.7c0.3,0.3,0.5,0.7,0.5,1.2c0,0.6-0.2,1.1-0.7,1.5S83.7,13,82.7,13c-0.8,0-1.5-0.2-2-0.5
	S79.9,11.6,79.8,11.1z M92,8.5l-1.5-0.3c0.2-0.6,0.5-1.1,0.9-1.3s1-0.4,1.8-0.4c0.7,0,1.3,0.1,1.6,0.3s0.6,0.4,0.8,0.7
	s0.2,0.8,0.2,1.5l0,1.9c0,0.6,0,0.9,0.1,1.2s0.2,0.5,0.3,0.8h-1.6c0-0.1-0.1-0.3-0.2-0.5c0-0.1-0.1-0.2-0.1-0.2
	c-0.3,0.3-0.6,0.5-0.9,0.6s-0.7,0.2-1,0.2c-0.6,0-1.2-0.2-1.5-0.5s-0.6-0.8-0.6-1.3c0-0.4,0.1-0.7,0.2-0.9s0.4-0.5,0.7-0.6
	s0.7-0.3,1.3-0.4c0.8-0.1,1.3-0.3,1.6-0.4V8.6c0-0.3-0.1-0.5-0.2-0.7c-0.2-0.1-0.4-0.2-0.9-0.2c-0.3,0-0.5,0.1-0.7,0.2
	C92.2,8,92.1,8.2,92,8.5z M94.2,9.8c-0.2,0.1-0.5,0.1-1,0.2s-0.8,0.2-0.9,0.3C92.1,10.5,92,10.7,92,11s0.1,0.4,0.3,0.6
	s0.4,0.2,0.7,0.2c0.3,0,0.6-0.1,0.8-0.3c0.2-0.1,0.3-0.3,0.4-0.5c0-0.1,0.1-0.4,0.1-0.8V9.8z M103.1,12.8h-1.7V9.6
	c0-0.7,0-1.1-0.1-1.3S101.2,8,101,7.9s-0.3-0.2-0.6-0.2c-0.3,0-0.5,0.1-0.8,0.2c-0.2,0.2-0.4,0.4-0.5,0.6s-0.1,0.7-0.1,1.4v2.8h-1.7
	V6.6h1.5v0.9c0.5-0.7,1.2-1,2.1-1c0.4,0,0.7,0.1,1,0.2s0.5,0.3,0.7,0.5s0.3,0.4,0.3,0.7c0.1,0.3,0.1,0.6,0.1,1.1L103.1,12.8
	L103.1,12.8z M109.8,8.5l-1.5-0.3c0.2-0.6,0.5-1.1,0.9-1.3s1-0.4,1.8-0.4c0.7,0,1.3,0.1,1.6,0.3s0.6,0.4,0.8,0.7s0.2,0.8,0.2,1.5
	l0,1.9c0,0.6,0,0.9,0.1,1.2s0.2,0.5,0.3,0.8h-1.6c0-0.1-0.1-0.3-0.2-0.5c0-0.1-0.1-0.2-0.1-0.2c-0.3,0.3-0.6,0.5-0.9,0.6
	s-0.7,0.2-1,0.2c-0.6,0-1.2-0.2-1.5-0.5s-0.6-0.8-0.6-1.3c0-0.4,0.1-0.7,0.2-0.9s0.4-0.5,0.7-0.6s0.7-0.3,1.3-0.4
	c0.8-0.1,1.3-0.3,1.6-0.4V8.6c0-0.3-0.1-0.5-0.2-0.7c-0.2-0.1-0.4-0.2-0.9-0.2c-0.3,0-0.5,0.1-0.7,0.2C110,8,109.9,8.2,109.8,8.5z
	 M112,9.8c-0.2,0.1-0.5,0.1-1,0.2s-0.8,0.2-0.9,0.3c-0.2,0.1-0.3,0.4-0.3,0.6s0.1,0.4,0.3,0.6s0.4,0.2,0.7,0.2
	c0.3,0,0.6-0.1,0.8-0.3c0.2-0.1,0.3-0.3,0.4-0.5c0-0.1,0.1-0.4,0.1-0.8V9.8z M115.2,6.6h1.5v0.9c0.2-0.3,0.5-0.6,0.8-0.8
	s0.7-0.3,1.1-0.3c0.7,0,1.3,0.3,1.8,0.8s0.8,1.4,0.8,2.4c0,1-0.2,1.9-0.8,2.4s-1.1,0.9-1.8,0.9c-0.3,0-0.7-0.1-0.9-0.2
	s-0.6-0.4-0.9-0.7v3.1h-1.7L115.2,6.6L115.2,6.6z M116.8,9.6c0,0.7,0.1,1.2,0.4,1.6s0.6,0.5,1,0.5c0.4,0,0.7-0.1,1-0.5
	s0.4-0.8,0.4-1.5c0-0.6-0.1-1.1-0.4-1.4c-0.3-0.3-0.6-0.5-1-0.5c-0.4,0-0.7,0.2-1,0.5C116.9,8.5,116.8,9,116.8,9.6z M122.5,6.6h1.5
	v0.9c0.2-0.3,0.5-0.6,0.8-0.8s0.7-0.3,1.1-0.3c0.7,0,1.3,0.3,1.8,0.8c0.5,0.6,0.8,1.4,0.8,2.4c0,1-0.2,1.9-0.8,2.4s-1.1,0.9-1.8,0.9
	c-0.3,0-0.7-0.1-0.9-0.2s-0.6-0.4-0.9-0.7v3.1h-1.7L122.5,6.6L122.5,6.6z M124.1,9.6c0,0.7,0.1,1.2,0.4,1.6s0.6,0.5,1,0.5
	c0.4,0,0.7-0.1,1-0.5s0.4-0.8,0.4-1.5c0-0.6-0.1-1.1-0.4-1.4c-0.3-0.3-0.6-0.5-1-0.5c-0.4,0-0.7,0.2-1,0.5
	C124.2,8.5,124.1,9,124.1,9.6z M136.5,6.6v1.3h-1.1v2.5c0,0.5,0,0.8,0,0.9s0.1,0.1,0.1,0.2s0.2,0.1,0.3,0.1c0.1,0,0.4-0.1,0.7-0.2
	l0.1,1.3c-0.4,0.2-0.8,0.2-1.3,0.2c-0.3,0-0.6-0.1-0.8-0.1s-0.4-0.2-0.5-0.4s-0.2-0.4-0.2-0.6c0-0.2-0.1-0.6-0.1-1.2V7.9h-0.8V6.6
	h0.8V5.4l1.6-1v2.2C135.4,6.6,136.5,6.6,136.5,6.6z M137.2,9.6c0-0.6,0.1-1.1,0.4-1.6c0.3-0.5,0.6-0.9,1.1-1.2s1.1-0.4,1.7-0.4
	c0.9,0,1.7,0.3,2.3,0.9s0.9,1.4,0.9,2.3c0,0.9-0.3,1.7-0.9,2.3s-1.4,0.9-2.3,0.9c-0.6,0-1.1-0.1-1.6-0.4s-0.9-0.6-1.2-1.1
	C137.4,10.9,137.2,10.4,137.2,9.6z M138.9,9.7c0,0.6,0.1,1.1,0.4,1.4s0.6,0.5,1.1,0.5s0.8-0.2,1.1-0.5s0.4-0.8,0.4-1.4
	c0-0.6-0.1-1.1-0.4-1.4c-0.3-0.3-0.6-0.5-1.1-0.5s-0.8,0.2-1.1,0.5C139.1,8.6,138.9,9.1,138.9,9.7z M154.1,8.4l-1.6,0.3
	c-0.1-0.3-0.2-0.6-0.4-0.7s-0.4-0.2-0.8-0.2c-0.4,0-0.7,0.1-1,0.4c-0.2,0.3-0.4,0.8-0.4,1.4c0,0.7,0.1,1.3,0.4,1.6s0.6,0.5,1,0.5
	c0.3,0,0.6-0.1,0.8-0.3s0.3-0.5,0.4-0.9l1.6,0.3c-0.2,0.7-0.5,1.3-1,1.7s-1.1,0.6-1.9,0.6c-0.9,0-1.6-0.3-2.2-0.9s-0.8-1.4-0.8-2.4
	c0-1,0.3-1.8,0.8-2.4s1.3-0.9,2.2-0.9c0.8,0,1.4,0.2,1.8,0.5S153.9,7.8,154.1,8.4z M155,9.6c0-0.6,0.1-1.1,0.4-1.6s0.6-0.9,1.1-1.2
	s1.1-0.4,1.7-0.4c0.9,0,1.7,0.3,2.3,0.9s0.9,1.4,0.9,2.3c0,0.9-0.3,1.7-0.9,2.3s-1.4,0.9-2.3,0.9c-0.6,0-1.1-0.1-1.6-0.4
	s-0.9-0.6-1.2-1.1S155,10.4,155,9.6z M156.7,9.7c0,0.6,0.1,1.1,0.4,1.4s0.6,0.5,1.1,0.5s0.8-0.2,1.1-0.5s0.4-0.8,0.4-1.4
	c0-0.6-0.1-1.1-0.4-1.4c-0.3-0.3-0.6-0.5-1.1-0.5s-0.8,0.2-1.1,0.5C156.8,8.6,156.7,9.1,156.7,9.7z M168.4,12.8h-1.6V9.6
	c0-0.7,0-1.1-0.1-1.3s-0.2-0.3-0.3-0.5s-0.4-0.2-0.6-0.2c-0.3,0-0.5,0.1-0.8,0.2c-0.2,0.2-0.4,0.4-0.5,0.6s-0.1,0.7-0.1,1.4v2.8
	h-1.6V6.6h1.5v0.9c0.5-0.7,1.2-1,2.1-1c0.4,0,0.7,0.1,1,0.2s0.5,0.3,0.7,0.5s0.3,0.4,0.3,0.7c0.1,0.3,0.1,0.6,0.1,1.1L168.4,12.8
	L168.4,12.8z M175.7,12.8H174V9.6c0-0.7,0-1.1-0.1-1.3s-0.2-0.3-0.3-0.5s-0.4-0.2-0.6-0.2c-0.3,0-0.5,0.1-0.8,0.2
	c-0.2,0.2-0.4,0.4-0.5,0.6s-0.1,0.7-0.1,1.4v2.8H170V6.6h1.5v0.9c0.5-0.7,1.2-1,2.1-1c0.4,0,0.7,0.1,1,0.2s0.5,0.3,0.7,0.5
	s0.3,0.4,0.3,0.7c0.1,0.3,0.1,0.6,0.1,1.1L175.7,12.8L175.7,12.8z M181,10.9l1.6,0.3c-0.2,0.6-0.5,1.1-1,1.4s-1,0.5-1.7,0.5
	c-1.1,0-1.9-0.4-2.4-1.1c-0.4-0.6-0.6-1.3-0.6-2.1c0-1,0.3-1.8,0.8-2.4s1.2-0.9,2-0.9c0.9,0,1.7,0.3,2.2,0.9s0.8,1.6,0.8,2.8h-4.1
	c0,0.5,0.1,0.9,0.4,1.1s0.6,0.4,0.9,0.4c0.3,0,0.5-0.1,0.6-0.2S180.9,11.2,181,10.9z M181.1,9.2c0-0.5-0.1-0.8-0.4-1.1
	c-0.2-0.2-0.5-0.4-0.9-0.4c-0.4,0-0.7,0.1-0.9,0.4s-0.4,0.6-0.4,1.1H181.1z M189.5,8.4l-1.6,0.3c-0.1-0.3-0.2-0.6-0.4-0.7
	s-0.4-0.2-0.8-0.2c-0.4,0-0.7,0.1-1,0.4c-0.2,0.3-0.4,0.8-0.4,1.4c0,0.7,0.1,1.3,0.4,1.6s0.6,0.5,1,0.5c0.3,0,0.6-0.1,0.8-0.3
	s0.3-0.5,0.4-0.9l1.6,0.3c-0.2,0.7-0.5,1.3-1,1.7s-1.1,0.6-1.9,0.6c-0.9,0-1.6-0.3-2.2-0.9s-0.8-1.4-0.8-2.4c0-1,0.3-1.8,0.8-2.4
	s1.3-0.9,2.2-0.9c0.8,0,1.4,0.2,1.8,0.5S189.3,7.8,189.5,8.4z M193.6,6.6v1.3h-1.1v2.5c0,0.5,0,0.8,0,0.9s0.1,0.1,0.1,0.2
	s0.2,0.1,0.3,0.1c0.1,0,0.4-0.1,0.7-0.2l0.1,1.3c-0.4,0.2-0.8,0.2-1.3,0.2c-0.3,0-0.6-0.1-0.8-0.1s-0.4-0.2-0.5-0.4
	s-0.2-0.4-0.2-0.6c0-0.2-0.1-0.6-0.1-1.2V7.9H190V6.6h0.8V5.4l1.6-1v2.2C192.4,6.6,193.6,6.6,193.6,6.6z M201.3,6.6v1.3h-1.1v2.5
	c0,0.5,0,0.8,0,0.9s0.1,0.1,0.1,0.2s0.2,0.1,0.3,0.1c0.1,0,0.4-0.1,0.7-0.2l0.1,1.3c-0.4,0.2-0.8,0.2-1.3,0.2
	c-0.3,0-0.6-0.1-0.8-0.1s-0.4-0.2-0.5-0.4s-0.2-0.4-0.2-0.6c0-0.2-0.1-0.6-0.1-1.2V7.9h-0.8V6.6h0.8V5.4l1.6-1v2.2
	C200.2,6.6,201.3,6.6,201.3,6.6z M204.1,4.2v3.2c0.5-0.6,1.2-0.9,1.9-0.9c0.4,0,0.7,0.1,1,0.2s0.5,0.3,0.7,0.5S208,7.7,208,8
	c0.1,0.3,0.1,0.7,0.1,1.2v3.6h-1.6V9.5c0-0.6,0-1.1-0.1-1.2S206.2,8,206,7.9s-0.4-0.2-0.6-0.2c-0.3,0-0.5,0.1-0.7,0.2
	c-0.2,0.1-0.4,0.3-0.5,0.6s-0.1,0.7-0.1,1.2v3.1h-1.6V4.2H204.1z M213.4,10.9l1.6,0.3c-0.2,0.6-0.5,1.1-1,1.4s-1,0.5-1.7,0.5
	c-1.1,0-1.9-0.4-2.4-1.1c-0.4-0.6-0.6-1.3-0.6-2.1c0-1,0.3-1.8,0.8-2.4s1.2-0.9,2-0.9c0.9,0,1.7,0.3,2.2,0.9s0.8,1.6,0.8,2.8H211
	c0,0.5,0.1,0.9,0.4,1.1s0.6,0.4,0.9,0.4c0.3,0,0.5-0.1,0.6-0.2S213.3,11.2,213.4,10.9z M213.5,9.2c0-0.5-0.1-0.8-0.4-1.1
	c-0.2-0.2-0.5-0.4-0.9-0.4c-0.4,0-0.7,0.1-0.9,0.4S211,8.7,211,9.2H213.5z M220.2,6.6h1.5v0.9c0.2-0.3,0.5-0.6,0.8-0.8
	s0.7-0.3,1.1-0.3c0.7,0,1.3,0.3,1.8,0.8s0.8,1.4,0.8,2.4c0,1-0.2,1.9-0.8,2.4s-1.1,0.9-1.9,0.9c-0.3,0-0.7-0.1-0.9-0.2
	s-0.6-0.4-0.9-0.7v3.1h-1.6L220.2,6.6L220.2,6.6z M221.8,9.6c0,0.7,0.1,1.2,0.4,1.6s0.6,0.5,1,0.5c0.4,0,0.7-0.1,1-0.5
	s0.4-0.8,0.4-1.5c0-0.6-0.1-1.1-0.4-1.4c-0.3-0.3-0.6-0.5-1-0.5c-0.4,0-0.7,0.2-1,0.5C221.9,8.5,221.8,9,221.8,9.6z M231.1,10.9
	l1.6,0.3c-0.2,0.6-0.5,1.1-1,1.4s-1,0.5-1.7,0.5c-1.1,0-1.9-0.4-2.4-1.1c-0.4-0.6-0.6-1.3-0.6-2.1c0-1,0.3-1.8,0.8-2.4
	s1.2-0.9,2-0.9c0.9,0,1.7,0.3,2.2,0.9s0.8,1.6,0.8,2.8h-4.1c0,0.5,0.1,0.9,0.4,1.1s0.6,0.4,0.9,0.4c0.3,0,0.5-0.1,0.6-0.2
	S231.1,11.2,231.1,10.9z M231.2,9.2c0-0.5-0.1-0.8-0.4-1.1c-0.2-0.2-0.5-0.4-0.9-0.4c-0.4,0-0.7,0.1-0.9,0.4s-0.4,0.6-0.4,1.1H231.2
	z M233.8,9.6c0-0.6,0.1-1.1,0.4-1.6s0.6-0.9,1.1-1.2s1.1-0.4,1.7-0.4c0.9,0,1.7,0.3,2.3,0.9s0.9,1.4,0.9,2.3c0,0.9-0.3,1.7-0.9,2.3
	S238,13,237,13c-0.6,0-1.1-0.1-1.6-0.4s-0.9-0.6-1.2-1.1S233.8,10.4,233.8,9.6z M235.5,9.7c0,0.6,0.1,1.1,0.4,1.4s0.6,0.5,1.1,0.5
	s0.8-0.2,1.1-0.5s0.4-0.8,0.4-1.4c0-0.6-0.1-1.1-0.4-1.4c-0.3-0.3-0.6-0.5-1.1-0.5S236.3,8,236,8.3C235.7,8.6,235.5,9.1,235.5,9.7z
	 M241.5,6.6h1.5v0.9c0.2-0.3,0.5-0.6,0.8-0.8s0.7-0.3,1.1-0.3c0.7,0,1.3,0.3,1.8,0.8s0.8,1.4,0.8,2.4c0,1-0.2,1.9-0.8,2.4
	S245.7,13,245,13c-0.3,0-0.7-0.1-0.9-0.2s-0.6-0.4-0.9-0.7v3.1h-1.6L241.5,6.6L241.5,6.6z M243.1,9.6c0,0.7,0.1,1.2,0.4,1.6
	s0.6,0.5,1,0.5c0.4,0,0.7-0.1,1-0.5s0.4-0.8,0.4-1.5c0-0.6-0.1-1.1-0.4-1.4c-0.3-0.3-0.6-0.5-1-0.5c-0.4,0-0.7,0.2-1,0.5
	C243.3,8.5,243.1,9,243.1,9.6z M248.9,12.8V4.2h1.6v8.6H248.9z M255.8,10.9l1.6,0.3c-0.2,0.6-0.5,1.1-1,1.4s-1,0.5-1.7,0.5
	c-1.1,0-1.9-0.4-2.4-1.1c-0.4-0.6-0.6-1.3-0.6-2.1c0-1,0.3-1.8,0.8-2.4s1.2-0.9,2-0.9c0.9,0,1.7,0.3,2.2,0.9s0.8,1.6,0.8,2.8h-4.1
	c0,0.5,0.1,0.9,0.4,1.1s0.6,0.4,0.9,0.4c0.3,0,0.5-0.1,0.6-0.2S255.7,11.2,255.8,10.9z M255.9,9.2c0-0.5-0.1-0.8-0.4-1.1
	c-0.2-0.2-0.5-0.4-0.9-0.4c-0.4,0-0.7,0.1-0.9,0.4s-0.4,0.6-0.4,1.1H255.9z M2,27.2L0,21h1.6l1.2,4.1L3.8,21h1.6l1,4.1L7.7,21h1.6
	l-2,6.2H5.7l-1.1-4l-1,4H2z M10.1,20.2v-1.5h1.6v1.5H10.1z M10.1,27.2V21h1.6v6.2H10.1z M16.3,21v1.3h-1.1v2.5c0,0.5,0,0.8,0,0.9
	s0.1,0.1,0.1,0.2s0.2,0.1,0.3,0.1c0.1,0,0.4,0,0.7-0.2l0.1,1.3c-0.4,0.2-0.8,0.2-1.3,0.2c-0.3,0-0.6,0-0.8-0.1S14,27,13.8,26.8
	s-0.2-0.4-0.2-0.6c0-0.2-0.1-0.6-0.1-1.2v-2.7h-0.8V21h0.8v-1.2l1.6-1V21L16.3,21L16.3,21z M19.1,18.6v3.2c0.5-0.6,1.2-0.9,1.9-0.9
	c0.4,0,0.7,0.1,1,0.2s0.5,0.3,0.7,0.5s0.3,0.5,0.3,0.7s0.1,0.7,0.1,1.2v3.6h-1.6v-3.3c0-0.6,0-1.1-0.1-1.2s-0.2-0.3-0.3-0.4
	s-0.4-0.2-0.6-0.2c-0.3,0-0.5,0.1-0.7,0.2s-0.4,0.3-0.5,0.6s-0.1,0.7-0.1,1.2v3.1h-1.6v-8.6L19.1,18.6L19.1,18.6z M32.2,21v1.3h-1.1
	v2.5c0,0.5,0,0.8,0,0.9s0.1,0.1,0.1,0.2s0.2,0.1,0.3,0.1c0.1,0,0.4,0,0.7-0.2l0.1,1.3c-0.4,0.2-0.8,0.2-1.3,0.2
	c-0.3,0-0.6,0-0.8-0.1s-0.4-0.2-0.5-0.4s-0.2-0.4-0.2-0.6c0-0.2,0-0.6,0-1.2v-2.7h-0.8V21h0.8v-1.2l1.6-1V21L32.2,21L32.2,21z
	 M35,18.6v3.2c0.5-0.6,1.2-0.9,1.9-0.9c0.4,0,0.7,0.1,1,0.2s0.5,0.3,0.7,0.5s0.3,0.5,0.3,0.7S39,23,39,23.6v3.6h-1.7v-3.3
	c0-0.6,0-1.1-0.1-1.2s-0.2-0.3-0.3-0.4s-0.4-0.2-0.6-0.2c-0.3,0-0.5,0.1-0.7,0.2s-0.4,0.3-0.5,0.6S35,23.6,35,24.1v3.1h-1.7v-8.6H35
	z M44.3,25.2l1.6,0.3c-0.2,0.6-0.5,1.1-1,1.4s-1,0.5-1.7,0.5c-1.1,0-1.9-0.4-2.4-1.1c-0.4-0.6-0.6-1.3-0.6-2.1c0-1,0.3-1.8,0.8-2.4
	s1.2-0.9,2-0.9c0.9,0,1.7,0.3,2.2,0.9s0.8,1.5,0.8,2.8h-4.1c0,0.5,0.1,0.9,0.4,1.1s0.6,0.4,1,0.4c0.3,0,0.5-0.1,0.7-0.2
	S44.2,25.6,44.3,25.2z M44.4,23.6c0-0.5-0.1-0.8-0.4-1.1s-0.5-0.4-0.9-0.4c-0.4,0-0.7,0.1-0.9,0.4s-0.3,0.6-0.3,1.1
	C41.9,23.6,44.4,23.6,44.4,23.6z M51.9,27.2v-8.6h1.7v8.6H51.9z M54.9,24c0-0.5,0.1-1.1,0.4-1.6s0.7-0.9,1.2-1.2s1-0.4,1.7-0.4
	c0.9,0,1.7,0.3,2.3,0.9s0.9,1.4,0.9,2.3s-0.3,1.7-0.9,2.3s-1.4,0.9-2.3,0.9c-0.6,0-1.1-0.1-1.6-0.4s-0.9-0.6-1.2-1.1
	S54.9,24.8,54.9,24z M56.6,24.1c0,0.6,0.2,1.1,0.4,1.4s0.7,0.5,1.1,0.5s0.8-0.2,1.1-0.5s0.4-0.8,0.4-1.4c0-0.6-0.2-1.1-0.4-1.4
	s-0.7-0.5-1.1-0.5s-0.8,0.2-1.1,0.5S56.6,23.5,56.6,24.1z M68,22.9l-1.6,0.3c-0.1-0.3-0.2-0.6-0.4-0.7s-0.4-0.2-0.8-0.2
	c-0.4,0-0.7,0.1-1,0.4s-0.4,0.8-0.4,1.4c0,0.7,0.1,1.3,0.4,1.6s0.6,0.5,1,0.5c0.3,0,0.6-0.1,0.8-0.3s0.3-0.5,0.4-0.9l1.6,0.3
	c-0.2,0.7-0.5,1.3-1,1.7s-1.1,0.6-1.9,0.6c-0.9,0-1.6-0.3-2.2-0.9s-0.8-1.4-0.8-2.4c0-1,0.3-1.8,0.8-2.4s1.3-0.9,2.2-0.9
	c0.8,0,1.4,0.2,1.8,0.5S67.8,22.2,68,22.9z M70.5,22.9L69,22.6c0.2-0.6,0.5-1,0.9-1.3s1-0.4,1.8-0.4c0.7,0,1.3,0.1,1.6,0.3
	s0.6,0.4,0.8,0.7s0.2,0.8,0.2,1.5l0,1.9c0,0.5,0,1,0.1,1.2s0.2,0.5,0.3,0.8h-1.6c0-0.1-0.1-0.3-0.2-0.5c0-0.1-0.1-0.2-0.1-0.2
	c-0.3,0.3-0.6,0.5-0.9,0.6s-0.7,0.2-1,0.2c-0.6,0-1.2-0.2-1.5-0.5s-0.6-0.8-0.6-1.3c0-0.4,0.1-0.7,0.2-0.9s0.4-0.5,0.7-0.6
	s0.7-0.3,1.3-0.4c0.8-0.1,1.3-0.3,1.6-0.4V23c0-0.3-0.1-0.5-0.2-0.7s-0.4-0.2-0.9-0.2c-0.3,0-0.5,0.1-0.7,0.2S70.6,22.6,70.5,22.9z
	 M72.7,24.2c-0.2,0.1-0.5,0.1-1,0.2s-0.8,0.2-0.9,0.3c-0.2,0.1-0.3,0.4-0.3,0.6s0.1,0.4,0.3,0.6s0.4,0.2,0.7,0.2
	c0.3,0,0.6-0.1,0.8-0.3c0.2-0.1,0.3-0.3,0.4-0.5c0-0.1,0.1-0.4,0.1-0.8V24.2z M75.9,27.2v-8.6h1.7v8.6H75.9z M83.7,21h1.5v0.9
	c0.5-0.7,1.2-1,1.9-1c0.4,0,0.7,0.1,1,0.2s0.5,0.4,0.7,0.7c0.3-0.3,0.6-0.6,0.9-0.7s0.7-0.2,1-0.2c0.5,0,0.8,0.1,1.2,0.3
	s0.6,0.5,0.7,0.8c0.1,0.3,0.2,0.7,0.2,1.3v4h-1.7v-3.6c0-0.6-0.1-1-0.2-1.2c-0.2-0.2-0.4-0.4-0.7-0.4c-0.2,0-0.4,0.1-0.7,0.2
	s-0.3,0.4-0.4,0.6s-0.1,0.7-0.1,1.3v3h-1.7v-3.4c0-0.6,0-1-0.1-1.2s-0.2-0.3-0.3-0.4s-0.3-0.1-0.5-0.1c-0.2,0-0.5,0.1-0.7,0.2
	s-0.3,0.3-0.4,0.6s-0.1,0.7-0.1,1.3v3h-1.7L83.7,21L83.7,21z M98.6,27.2v-0.9c-0.2,0.3-0.5,0.6-0.9,0.8s-0.8,0.3-1.2,0.3
	c-0.4,0-0.8-0.1-1.1-0.3s-0.6-0.4-0.7-0.8s-0.2-0.8-0.2-1.4V21h1.7v2.9c0,0.9,0,1.4,0.1,1.6s0.2,0.4,0.3,0.5s0.4,0.2,0.6,0.2
	c0.3,0,0.5-0.1,0.8-0.2s0.4-0.4,0.5-0.6s0.1-0.8,0.1-1.7V21h1.7v6.2L98.6,27.2L98.6,27.2z M101.2,25.5l1.7-0.2
	c0.1,0.3,0.2,0.6,0.4,0.7s0.5,0.2,0.9,0.2c0.4,0,0.8-0.1,1-0.2c0.1-0.1,0.2-0.3,0.2-0.4c0-0.1,0-0.2-0.1-0.3s-0.3-0.1-0.6-0.2
	c-1.3-0.3-2.2-0.6-2.5-0.8c-0.5-0.3-0.7-0.8-0.7-1.4c0-0.5,0.2-1,0.6-1.4s1.1-0.5,2-0.5c0.8,0,1.5,0.1,1.9,0.4s0.7,0.7,0.9,1.2
	l-1.6,0.3c-0.1-0.2-0.2-0.4-0.4-0.6s-0.4-0.2-0.8-0.2c-0.4,0-0.7,0.1-0.9,0.2c-0.1,0.1-0.2,0.2-0.2,0.3c0,0.1,0.1,0.2,0.2,0.3
	c0.2,0.1,0.7,0.3,1.5,0.5s1.5,0.4,1.8,0.7c0.3,0.3,0.5,0.7,0.5,1.2c0,0.6-0.2,1.1-0.7,1.5s-1.2,0.6-2.1,0.6c-0.8,0-1.5-0.2-2-0.5
	S101.4,26,101.2,25.5z M108.5,20.2v-1.5h1.7v1.5H108.5z M108.5,27.2V21h1.7v6.2H108.5z M117.3,22.9l-1.6,0.3
	c-0.1-0.3-0.2-0.6-0.4-0.7s-0.4-0.2-0.8-0.2c-0.4,0-0.7,0.1-1,0.4s-0.4,0.8-0.4,1.4c0,0.7,0.1,1.3,0.4,1.6s0.6,0.5,1,0.5
	c0.3,0,0.6-0.1,0.8-0.3s0.3-0.5,0.4-0.9l1.6,0.3c-0.2,0.7-0.5,1.3-1,1.7s-1.1,0.6-1.9,0.6c-0.9,0-1.6-0.3-2.2-0.9s-0.8-1.4-0.8-2.4
	c0-1,0.3-1.8,0.8-2.4s1.3-0.9,2.2-0.9c0.8,0,1.4,0.2,1.8,0.5S117.1,22.2,117.3,22.9z M122.5,25.5l1.7-0.2c0.1,0.3,0.2,0.6,0.4,0.7
	s0.5,0.2,0.9,0.2c0.4,0,0.8-0.1,1-0.2c0.1-0.1,0.2-0.3,0.2-0.4c0-0.1,0-0.2-0.1-0.3s-0.3-0.1-0.6-0.2c-1.3-0.3-2.2-0.6-2.5-0.8
	c-0.5-0.3-0.7-0.8-0.7-1.4c0-0.5,0.2-1,0.6-1.4s1.1-0.5,2-0.5c0.8,0,1.5,0.1,1.9,0.4s0.7,0.7,0.9,1.2l-1.6,0.3
	c-0.1-0.2-0.2-0.4-0.4-0.6s-0.4-0.2-0.8-0.2c-0.4,0-0.7,0.1-0.9,0.2c-0.1,0.1-0.2,0.2-0.2,0.3c0,0.1,0.1,0.2,0.2,0.3
	c0.2,0.1,0.7,0.3,1.5,0.5s1.5,0.4,1.8,0.7c0.3,0.3,0.5,0.7,0.5,1.2c0,0.6-0.2,1.1-0.7,1.5s-1.2,0.6-2.1,0.6c-0.8,0-1.5-0.2-2-0.5
	S122.7,26,122.5,25.5z M135.2,22.9l-1.6,0.3c-0.1-0.3-0.2-0.6-0.4-0.7s-0.4-0.2-0.8-0.2c-0.4,0-0.7,0.1-1,0.4s-0.4,0.8-0.4,1.4
	c0,0.7,0.1,1.3,0.4,1.6s0.6,0.5,1,0.5c0.3,0,0.6-0.1,0.8-0.3s0.3-0.5,0.4-0.9l1.6,0.3c-0.2,0.7-0.5,1.3-1,1.7s-1.1,0.6-1.9,0.6
	c-0.9,0-1.6-0.3-2.2-0.9s-0.8-1.4-0.8-2.4c0-1,0.3-1.8,0.8-2.4s1.3-0.9,2.2-0.9c0.8,0,1.4,0.2,1.8,0.5S135,22.2,135.2,22.9z
	 M140,25.2l1.6,0.3c-0.2,0.6-0.5,1.1-1,1.4s-1,0.5-1.7,0.5c-1.1,0-1.9-0.4-2.4-1.1c-0.4-0.6-0.6-1.3-0.6-2.1c0-1,0.3-1.8,0.8-2.4
	s1.2-0.9,2-0.9c0.9,0,1.7,0.3,2.2,0.9s0.8,1.5,0.8,2.8h-4.1c0,0.5,0.1,0.9,0.4,1.1s0.6,0.4,0.9,0.4c0.3,0,0.5-0.1,0.6-0.2
	S139.9,25.6,140,25.2z M140.1,23.6c0-0.5-0.1-0.8-0.4-1.1s-0.5-0.4-0.9-0.4c-0.4,0-0.7,0.1-0.9,0.4s-0.4,0.6-0.4,1.1
	C137.6,23.6,140.1,23.6,140.1,23.6z M148.8,27.2h-1.6V24c0-0.7,0-1.1-0.1-1.3s-0.2-0.4-0.3-0.5s-0.4-0.2-0.6-0.2
	c-0.3,0-0.5,0.1-0.8,0.2s-0.4,0.4-0.5,0.6s-0.1,0.7-0.1,1.4v2.8h-1.6V21h1.5v0.9c0.5-0.7,1.2-1,2.1-1c0.4,0,0.7,0.1,1,0.2
	s0.5,0.3,0.7,0.5s0.3,0.4,0.3,0.7s0.1,0.6,0.1,1.1L148.8,27.2L148.8,27.2z M154,25.2l1.6,0.3c-0.2,0.6-0.5,1.1-1,1.4s-1,0.5-1.7,0.5
	c-1.1,0-1.9-0.4-2.4-1.1c-0.4-0.6-0.6-1.3-0.6-2.1c0-1,0.3-1.8,0.8-2.4s1.2-0.9,2-0.9c0.9,0,1.7,0.3,2.2,0.9s0.8,1.5,0.8,2.8h-4.1
	c0,0.5,0.1,0.9,0.4,1.1s0.6,0.4,0.9,0.4c0.3,0,0.5-0.1,0.6-0.2S153.9,25.6,154,25.2z M154.1,23.6c0-0.5-0.1-0.8-0.4-1.1
	s-0.5-0.4-0.9-0.4c-0.4,0-0.7,0.1-0.9,0.4s-0.4,0.6-0.4,1.1C151.6,23.6,154.1,23.6,154.1,23.6z M157.1,27.2v-1.6h1.6v1.6H157.1z
	 M164.9,27.2v-8.6h1.7v8.6H164.9z M174,27.2h-1.6V24c0-0.7,0-1.1-0.1-1.3s-0.2-0.4-0.3-0.5s-0.4-0.2-0.6-0.2c-0.3,0-0.5,0.1-0.8,0.2
	s-0.4,0.4-0.5,0.6s-0.1,0.7-0.1,1.4v2.8h-1.6V21h1.5v0.9c0.5-0.7,1.2-1,2.1-1c0.4,0,0.7,0.1,1,0.2s0.5,0.3,0.7,0.5s0.3,0.4,0.3,0.7
	s0.1,0.6,0.1,1.1L174,27.2L174,27.2z M178.5,21v1.3h-1.1v2.5c0,0.5,0,0.8,0,0.9s0.1,0.1,0.1,0.2s0.2,0.1,0.3,0.1
	c0.1,0,0.4,0,0.7-0.2l0.1,1.3c-0.4,0.2-0.8,0.2-1.3,0.2c-0.3,0-0.6,0-0.8-0.1s-0.4-0.2-0.5-0.4s-0.2-0.4-0.2-0.6
	c0-0.2-0.1-0.6-0.1-1.2v-2.7H175V21h0.8v-1.2l1.6-1V21L178.5,21L178.5,21z M181.2,27.2h-1.6V21h1.5v0.9c0.3-0.4,0.5-0.7,0.7-0.8
	s0.4-0.2,0.7-0.2c0.4,0,0.7,0.1,1.1,0.3l-0.5,1.4c-0.3-0.2-0.5-0.3-0.8-0.3c-0.2,0-0.4,0.1-0.6,0.2s-0.3,0.4-0.4,0.7s-0.1,1-0.1,2.1
	L181.2,27.2L181.2,27.2z M183.9,24c0-0.5,0.1-1.1,0.4-1.6s0.6-0.9,1.1-1.2s1.1-0.4,1.7-0.4c0.9,0,1.7,0.3,2.3,0.9s0.9,1.4,0.9,2.3
	s-0.3,1.7-0.9,2.3s-1.4,0.9-2.3,0.9c-0.6,0-1.1-0.1-1.6-0.4s-0.9-0.6-1.2-1.1S183.9,24.8,183.9,24z M185.6,24.1
	c0,0.6,0.1,1.1,0.4,1.4s0.6,0.5,1.1,0.5s0.8-0.2,1.1-0.5s0.4-0.8,0.4-1.4c0-0.6-0.1-1.1-0.4-1.4s-0.6-0.5-1.1-0.5s-0.8,0.2-1.1,0.5
	S185.6,23.5,185.6,24.1z M197.4,27.2h-1.5v-0.9c-0.2,0.4-0.6,0.6-0.9,0.8s-0.7,0.3-1.1,0.3c-0.7,0-1.3-0.3-1.8-0.9s-0.8-1.4-0.8-2.4
	c0-1,0.2-1.9,0.7-2.4s1.1-0.8,1.9-0.8c0.7,0,1.3,0.3,1.8,0.9v-3.1h1.6L197.4,27.2L197.4,27.2z M193,24c0,0.7,0.1,1.1,0.3,1.4
	c0.3,0.4,0.6,0.6,1.1,0.6c0.4,0,0.7-0.2,1-0.5s0.4-0.8,0.4-1.4c0-0.7-0.1-1.2-0.4-1.5s-0.6-0.5-1-0.5c-0.4,0-0.7,0.2-1,0.5
	S193,23.4,193,24z M203.1,27.2v-0.9c-0.2,0.3-0.5,0.6-0.9,0.8s-0.8,0.3-1.2,0.3c-0.4,0-0.8-0.1-1.1-0.3s-0.6-0.4-0.7-0.8
	S199,25.5,199,25V21h1.6v2.9c0,0.9,0,1.4,0.1,1.6s0.2,0.4,0.3,0.5s0.4,0.2,0.6,0.2c0.3,0,0.5-0.1,0.8-0.2s0.4-0.4,0.5-0.6
	s0.1-0.8,0.1-1.7V21h1.6v6.2L203.1,27.2L203.1,27.2z M211.7,22.9l-1.6,0.3c-0.1-0.3-0.2-0.6-0.4-0.7s-0.4-0.2-0.8-0.2
	c-0.4,0-0.7,0.1-1,0.4s-0.4,0.8-0.4,1.4c0,0.7,0.1,1.3,0.4,1.6s0.6,0.5,1,0.5c0.3,0,0.6-0.1,0.8-0.3s0.3-0.5,0.4-0.9l1.6,0.3
	c-0.2,0.7-0.5,1.3-1,1.7s-1.1,0.6-1.9,0.6c-0.9,0-1.6-0.3-2.2-0.9s-0.8-1.4-0.8-2.4c0-1,0.3-1.8,0.8-2.4s1.3-0.9,2.2-0.9
	c0.8,0,1.4,0.2,1.8,0.5S211.5,22.2,211.7,22.9z M213,20.2v-1.5h1.6v1.5H213z M213,27.2V21h1.6v6.2H213z M222,27.2h-1.6V24
	c0-0.7,0-1.1-0.1-1.3s-0.2-0.4-0.3-0.5s-0.4-0.2-0.6-0.2c-0.3,0-0.5,0.1-0.8,0.2s-0.4,0.4-0.5,0.6s-0.1,0.7-0.1,1.4v2.8h-1.6V21h1.5
	v0.9c0.5-0.7,1.2-1,2.1-1c0.4,0,0.7,0.1,1,0.2s0.5,0.3,0.7,0.5s0.3,0.4,0.3,0.7s0.1,0.6,0.1,1.1L222,27.2L222,27.2z M223.5,27.6
	l1.9,0.2c0,0.2,0.1,0.4,0.2,0.5c0.2,0.1,0.4,0.2,0.7,0.2c0.4,0,0.8-0.1,1-0.2c0.1-0.1,0.2-0.2,0.3-0.4c0.1-0.1,0.1-0.4,0.1-0.8v-0.9
	c-0.5,0.7-1.1,1-1.9,1c-0.8,0-1.5-0.4-2-1.1c-0.4-0.6-0.6-1.2-0.6-2.1c0-1,0.2-1.8,0.8-2.4s1.1-0.8,1.9-0.8c0.8,0,1.4,0.3,1.9,1V21
	h1.5v5.6c0,0.7-0.1,1.3-0.2,1.6s-0.3,0.6-0.5,0.9s-0.5,0.4-0.9,0.5s-0.8,0.2-1.4,0.2c-1.1,0-1.8-0.2-2.2-0.5s-0.7-0.8-0.7-1.4
	C223.5,27.8,223.5,27.7,223.5,27.6z M225,24c0,0.7,0.1,1.1,0.4,1.5s0.6,0.5,0.9,0.5c0.4,0,0.7-0.2,1-0.5s0.4-0.8,0.4-1.4
	c0-0.6-0.1-1.1-0.4-1.4s-0.6-0.5-1-0.5c-0.4,0-0.7,0.1-1,0.5S225,23.4,225,24z M241.2,27.2h-1.6V24c0-0.7,0-1.1-0.1-1.3
	s-0.2-0.4-0.3-0.5s-0.4-0.2-0.6-0.2c-0.3,0-0.5,0.1-0.8,0.2s-0.4,0.4-0.5,0.6s-0.1,0.7-0.1,1.4v2.8h-1.6V21h1.5v0.9
	c0.5-0.7,1.2-1,2.1-1c0.4,0,0.7,0.1,1,0.2s0.5,0.3,0.7,0.5s0.3,0.4,0.3,0.7s0.1,0.6,0.1,1.1L241.2,27.2L241.2,27.2z M246.5,25.2
	l1.6,0.3c-0.2,0.6-0.5,1.1-1,1.4s-1,0.5-1.7,0.5c-1.1,0-1.9-0.4-2.4-1.1c-0.4-0.6-0.6-1.3-0.6-2.1c0-1,0.3-1.8,0.8-2.4
	s1.2-0.9,2-0.9c0.9,0,1.7,0.3,2.2,0.9s0.8,1.5,0.8,2.8h-4.1c0,0.5,0.1,0.9,0.4,1.1s0.6,0.4,0.9,0.4c0.3,0,0.5-0.1,0.6-0.2
	S246.4,25.6,246.5,25.2z M246.6,23.6c0-0.5-0.1-0.8-0.4-1.1s-0.5-0.4-0.9-0.4c-0.4,0-0.7,0.1-0.9,0.4s-0.4,0.6-0.4,1.1
	C244.1,23.6,246.6,23.6,246.6,23.6z M250.7,27.2l-2-6.2h1.6l1.2,4.1l1.1-4.1h1.6l1,4.1l1.2-4.1h1.6l-2,6.2h-1.6l-1.1-4l-1.1,4H250.7
	z M0.7,35.4h1.5v0.8c0.5-0.7,1.2-1,1.9-1c0.4,0,0.7,0.1,1,0.2s0.5,0.4,0.7,0.7c0.3-0.3,0.6-0.6,0.9-0.7s0.7-0.2,1-0.2
	c0.5,0,0.8,0.1,1.2,0.3s0.6,0.5,0.7,0.8c0.1,0.3,0.2,0.7,0.2,1.3v4H8.2v-3.6c0-0.6-0.1-1-0.2-1.2c-0.2-0.2-0.4-0.3-0.7-0.3
	c-0.2,0-0.4,0.1-0.7,0.2s-0.3,0.3-0.4,0.6S6.1,38,6.1,38.6v3H4.4v-3.4c0-0.6,0-1-0.1-1.2s-0.2-0.3-0.3-0.4s-0.3-0.1-0.5-0.1
	c-0.2,0-0.5,0.1-0.7,0.2s-0.3,0.3-0.4,0.6S2.3,38,2.3,38.6v3H0.7V35.4z M15.6,41.6v-0.9c-0.2,0.3-0.5,0.6-0.9,0.8s-0.8,0.3-1.2,0.3
	c-0.4,0-0.8-0.1-1.1-0.3s-0.6-0.4-0.7-0.8s-0.2-0.8-0.2-1.4v-3.9h1.6v2.9c0,0.9,0,1.4,0.1,1.6s0.2,0.3,0.3,0.5s0.4,0.2,0.6,0.2
	c0.3,0,0.5-0.1,0.8-0.2s0.4-0.3,0.5-0.6s0.1-0.8,0.1-1.7v-2.6h1.7v6.2L15.6,41.6L15.6,41.6z M18.2,39.8l1.6-0.2
	c0.1,0.3,0.2,0.6,0.4,0.7s0.5,0.2,0.9,0.2c0.4,0,0.8-0.1,1-0.2c0.1-0.1,0.2-0.3,0.2-0.4c0-0.1,0-0.2-0.1-0.3s-0.3-0.2-0.5-0.2
	c-1.3-0.3-2.2-0.6-2.5-0.8c-0.5-0.3-0.7-0.8-0.7-1.4c0-0.5,0.2-1,0.6-1.4s1.1-0.5,2-0.5c0.9,0,1.5,0.1,1.9,0.4s0.7,0.7,0.9,1.2
	l-1.5,0.3c-0.1-0.2-0.2-0.4-0.4-0.6s-0.5-0.2-0.8-0.2c-0.4,0-0.7,0.1-0.9,0.2C20.1,36.7,20,36.8,20,37c0,0.1,0,0.2,0.2,0.3
	c0.1,0.1,0.7,0.3,1.5,0.5s1.5,0.4,1.8,0.7c0.3,0.3,0.5,0.7,0.5,1.2c0,0.6-0.2,1.1-0.7,1.5s-1.2,0.6-2.1,0.6c-0.9,0-1.5-0.2-2-0.5
	S18.4,40.4,18.2,39.8z M25.5,34.6V33h1.6v1.5H25.5z M25.5,41.6v-6.2h1.6v6.2H25.5z M34.2,37.2l-1.6,0.3c0-0.3-0.2-0.6-0.4-0.7
	s-0.4-0.2-0.8-0.2c-0.4,0-0.7,0.1-1,0.4s-0.4,0.8-0.4,1.4c0,0.7,0.1,1.3,0.4,1.6s0.6,0.5,1,0.5c0.3,0,0.6-0.1,0.8-0.3
	s0.3-0.5,0.4-0.9l1.6,0.3c-0.2,0.7-0.5,1.3-1,1.7s-1.1,0.6-1.9,0.6c-0.9,0-1.6-0.3-2.2-0.9s-0.8-1.4-0.8-2.4c0-1,0.3-1.8,0.8-2.4
	s1.3-0.9,2.2-0.9c0.8,0,1.4,0.2,1.8,0.5S34,36.6,34.2,37.2z M39.9,41.6V33h1.7v3.1c0.5-0.6,1.1-0.9,1.8-0.9c0.8,0,1.4,0.3,1.9,0.8
	s0.7,1.3,0.7,2.4c0,1.1-0.2,1.9-0.8,2.5s-1.1,0.9-1.8,0.9c-0.4,0-0.7-0.1-1-0.3s-0.6-0.4-0.9-0.8v0.9L39.9,41.6L39.9,41.6z
	 M41.5,38.4c0,0.6,0.1,1.1,0.3,1.4c0.3,0.4,0.7,0.7,1.1,0.7c0.4,0,0.7-0.2,0.9-0.5s0.4-0.8,0.4-1.5c0-0.7-0.1-1.2-0.4-1.5
	s-0.6-0.5-1-0.5c-0.4,0-0.7,0.2-1,0.5S41.5,37.8,41.5,38.4z M46.5,35.4h1.8l1.5,4.4l1.5-4.4h1.7l-2.2,6l-0.4,1.1
	c-0.1,0.4-0.3,0.6-0.4,0.8s-0.3,0.3-0.5,0.5s-0.4,0.2-0.6,0.3s-0.5,0.1-0.8,0.1c-0.3,0-0.6,0-0.9-0.1l-0.2-1.3
	c0.3,0,0.5,0.1,0.7,0.1c0.4,0,0.7-0.1,0.8-0.3s0.3-0.5,0.4-0.9L46.5,35.4z M63.8,37.2l-1.6,0.3c0-0.3-0.2-0.6-0.4-0.7
	s-0.4-0.2-0.8-0.2c-0.4,0-0.7,0.1-1,0.4s-0.4,0.8-0.4,1.4c0,0.7,0.1,1.3,0.4,1.6s0.6,0.5,1,0.5c0.3,0,0.6-0.1,0.8-0.3
	s0.3-0.5,0.4-0.9l1.6,0.3c-0.2,0.7-0.5,1.3-1,1.7s-1.1,0.6-1.9,0.6c-0.9,0-1.6-0.3-2.2-0.9S58,39.5,58,38.5c0-1,0.3-1.8,0.8-2.4
	s1.3-0.9,2.2-0.9c0.8,0,1.4,0.2,1.8,0.5S63.6,36.6,63.8,37.2z M64.7,38.4c0-0.5,0.1-1.1,0.4-1.6s0.7-0.9,1.2-1.2s1.1-0.4,1.7-0.4
	c0.9,0,1.7,0.3,2.3,0.9s0.9,1.4,0.9,2.3s-0.3,1.7-0.9,2.3s-1.4,0.9-2.3,0.9c-0.6,0-1.1-0.1-1.6-0.4s-0.9-0.6-1.2-1.1
	S64.7,39.2,64.7,38.4z M66.4,38.5c0,0.6,0.2,1.1,0.4,1.4s0.7,0.5,1.1,0.5s0.8-0.2,1.1-0.5s0.4-0.8,0.4-1.4c0-0.6-0.2-1.1-0.4-1.4
	s-0.7-0.5-1.1-0.5s-0.8,0.2-1.1,0.5S66.4,37.9,66.4,38.5z M78.1,41.6h-1.7v-3.2c0-0.7,0-1.1-0.1-1.3s-0.2-0.3-0.3-0.5
	s-0.3-0.2-0.6-0.2c-0.3,0-0.5,0.1-0.8,0.2s-0.4,0.4-0.5,0.6S74,38.1,74,38.8v2.8h-1.7v-6.2h1.5v0.9c0.5-0.7,1.2-1,2.1-1
	c0.4,0,0.7,0.1,1,0.2s0.5,0.3,0.7,0.5s0.3,0.4,0.3,0.7s0.1,0.6,0.1,1.1L78.1,41.6L78.1,41.6z M85.4,41.6h-1.7v-3.2
	c0-0.7,0-1.1-0.1-1.3s-0.2-0.3-0.3-0.5s-0.3-0.2-0.6-0.2c-0.3,0-0.5,0.1-0.8,0.2s-0.4,0.4-0.5,0.6s-0.1,0.7-0.1,1.4v2.8h-1.7v-6.2
	h1.5v0.9c0.5-0.7,1.2-1,2.1-1c0.4,0,0.7,0.1,1,0.2s0.5,0.3,0.7,0.5s0.3,0.4,0.3,0.7s0.1,0.6,0.1,1.1L85.4,41.6L85.4,41.6z
	 M90.7,39.7l1.6,0.3c-0.2,0.6-0.5,1.1-1,1.4s-1,0.5-1.7,0.5c-1.1,0-1.9-0.3-2.4-1.1c-0.4-0.6-0.6-1.3-0.6-2.1c0-1,0.3-1.8,0.8-2.4
	s1.2-0.9,2-0.9c0.9,0,1.7,0.3,2.2,0.9s0.8,1.5,0.8,2.8h-4.1c0,0.5,0.1,0.9,0.4,1.1s0.6,0.4,0.9,0.4c0.3,0,0.5-0.1,0.7-0.2
	S90.6,40,90.7,39.7z M90.7,38c0-0.5-0.1-0.8-0.4-1.1s-0.5-0.4-0.9-0.4c-0.4,0-0.7,0.1-0.9,0.4s-0.3,0.6-0.3,1.1H90.7z M99.2,37.2
	l-1.6,0.3c-0.1-0.3-0.2-0.6-0.4-0.7s-0.4-0.2-0.8-0.2c-0.4,0-0.7,0.1-1,0.4s-0.4,0.8-0.4,1.4c0,0.7,0.1,1.3,0.4,1.6s0.6,0.5,1,0.5
	c0.3,0,0.6-0.1,0.8-0.3s0.3-0.5,0.4-0.9l1.6,0.3c-0.2,0.7-0.5,1.3-1,1.7s-1.1,0.6-1.9,0.6c-0.9,0-1.6-0.3-2.2-0.9s-0.8-1.4-0.8-2.4
	c0-1,0.3-1.8,0.8-2.4s1.3-0.9,2.2-0.9c0.8,0,1.4,0.2,1.8,0.5S98.9,36.6,99.2,37.2z M103.2,35.4v1.3h-1.1v2.5c0,0.5,0,0.8,0,0.9
	s0.1,0.2,0.2,0.2s0.2,0.1,0.3,0.1c0.2,0,0.4,0,0.7-0.2l0.1,1.3c-0.4,0.2-0.8,0.2-1.3,0.2c-0.3,0-0.6,0-0.8-0.2s-0.4-0.2-0.5-0.4
	s-0.2-0.4-0.2-0.6c0-0.2-0.1-0.6-0.1-1.2v-2.7h-0.8v-1.3h0.8v-1.2l1.7-1v2.2L103.2,35.4L103.2,35.4z M104.4,34.6V33h1.7v1.5H104.4z
	 M104.4,41.6v-6.2h1.7v6.2H104.4z M113.4,41.6h-1.7v-3.2c0-0.7,0-1.1-0.1-1.3s-0.2-0.3-0.3-0.5s-0.3-0.2-0.6-0.2
	c-0.3,0-0.5,0.1-0.8,0.2s-0.4,0.4-0.5,0.6s-0.1,0.7-0.1,1.4v2.8h-1.7v-6.2h1.5v0.9c0.5-0.7,1.2-1,2.1-1c0.4,0,0.7,0.1,1,0.2
	s0.5,0.3,0.7,0.5s0.3,0.4,0.3,0.7s0.1,0.6,0.1,1.1L113.4,41.6L113.4,41.6z M114.9,42l1.9,0.2c0,0.2,0.1,0.4,0.2,0.5
	c0.2,0.1,0.4,0.2,0.7,0.2c0.4,0,0.8-0.1,1-0.2c0.1-0.1,0.2-0.2,0.3-0.4c0.1-0.1,0.1-0.4,0.1-0.8v-0.9c-0.5,0.7-1.1,1-1.9,1
	c-0.8,0-1.5-0.3-2-1.1c-0.4-0.6-0.6-1.2-0.6-2.1c0-1,0.2-1.8,0.8-2.4s1.1-0.8,1.9-0.8c0.8,0,1.4,0.3,1.9,1v-0.9h1.5V41
	c0,0.7-0.1,1.3-0.2,1.7s-0.3,0.7-0.5,0.9s-0.5,0.4-0.9,0.5s-0.8,0.2-1.4,0.2c-1.1,0-1.8-0.2-2.2-0.5s-0.7-0.8-0.7-1.4
	C114.9,42.2,114.9,42.1,114.9,42z M116.4,38.4c0,0.7,0.1,1.1,0.4,1.5s0.6,0.5,0.9,0.5c0.4,0,0.7-0.2,1-0.5s0.4-0.8,0.4-1.4
	c0-0.6-0.1-1.1-0.4-1.4s-0.6-0.5-1-0.5c-0.4,0-0.7,0.2-1,0.5S116.4,37.8,116.4,38.4z M130.9,41.6v-0.9c-0.2,0.3-0.5,0.6-0.9,0.8
	s-0.8,0.3-1.2,0.3c-0.4,0-0.8-0.1-1.1-0.3s-0.6-0.4-0.7-0.8s-0.2-0.8-0.2-1.4v-3.9h1.7v2.9c0,0.9,0,1.4,0.1,1.6s0.2,0.3,0.3,0.5
	s0.4,0.2,0.6,0.2c0.3,0,0.5-0.1,0.8-0.2s0.4-0.3,0.5-0.6s0.1-0.8,0.1-1.7v-2.6h1.6v6.2L130.9,41.6L130.9,41.6z M133.6,39.8l1.6-0.2
	c0.1,0.3,0.2,0.6,0.4,0.7s0.5,0.2,0.9,0.2c0.4,0,0.8-0.1,1-0.2c0.1-0.1,0.2-0.3,0.2-0.4c0-0.1,0-0.2-0.1-0.3s-0.3-0.2-0.6-0.2
	c-1.3-0.3-2.2-0.6-2.5-0.8c-0.5-0.3-0.7-0.8-0.7-1.4c0-0.5,0.2-1,0.6-1.4s1.1-0.5,2-0.5c0.9,0,1.5,0.1,1.9,0.4s0.7,0.7,0.9,1.2
	l-1.6,0.3c-0.1-0.2-0.2-0.4-0.4-0.6s-0.4-0.2-0.8-0.2c-0.4,0-0.7,0.1-0.9,0.2c-0.1,0.1-0.2,0.2-0.2,0.3c0,0.1,0.1,0.2,0.2,0.3
	c0.1,0.1,0.7,0.3,1.5,0.5c0.9,0.2,1.5,0.4,1.8,0.7c0.3,0.3,0.5,0.7,0.5,1.2c0,0.6-0.2,1.1-0.7,1.5s-1.2,0.6-2.1,0.6
	c-0.9,0-1.5-0.2-2-0.5S133.7,40.4,133.6,39.8z M144.4,39.7l1.6,0.3c-0.2,0.6-0.5,1.1-1,1.4s-1,0.5-1.7,0.5c-1.1,0-1.9-0.3-2.4-1.1
	c-0.4-0.6-0.6-1.3-0.6-2.1c0-1,0.3-1.8,0.8-2.4s1.2-0.9,2-0.9c0.9,0,1.7,0.3,2.2,0.9s0.8,1.5,0.8,2.8H142c0,0.5,0.1,0.9,0.4,1.1
	s0.6,0.4,0.9,0.4c0.3,0,0.5-0.1,0.6-0.2S144.4,40,144.4,39.7z M144.5,38c0-0.5-0.1-0.8-0.4-1.1s-0.5-0.4-0.9-0.4
	c-0.4,0-0.7,0.1-0.9,0.4s-0.4,0.6-0.4,1.1H144.5z M149.1,41.6h-1.6v-6.2h1.5v0.9c0.3-0.4,0.5-0.7,0.7-0.8s0.4-0.2,0.7-0.2
	c0.4,0,0.7,0.1,1.1,0.3L151,37c-0.3-0.2-0.5-0.3-0.8-0.3c-0.2,0-0.4,0.1-0.6,0.2s-0.3,0.4-0.4,0.7s-0.1,1-0.1,2.1L149.1,41.6
	L149.1,41.6z M151.6,39.8l1.6-0.2c0.1,0.3,0.2,0.6,0.4,0.7s0.5,0.2,0.9,0.2c0.4,0,0.8-0.1,1-0.2c0.1-0.1,0.2-0.3,0.2-0.4
	c0-0.1,0-0.2-0.1-0.3s-0.3-0.2-0.6-0.2c-1.3-0.3-2.2-0.6-2.5-0.8c-0.5-0.3-0.7-0.8-0.7-1.4c0-0.5,0.2-1,0.6-1.4s1.1-0.5,2-0.5
	c0.9,0,1.5,0.1,1.9,0.4s0.7,0.7,0.9,1.2l-1.6,0.3c-0.1-0.2-0.2-0.4-0.4-0.6s-0.4-0.2-0.8-0.2c-0.4,0-0.7,0.1-0.9,0.2
	c-0.1,0.1-0.2,0.2-0.2,0.3c0,0.1,0.1,0.2,0.2,0.3c0.1,0.1,0.7,0.3,1.5,0.5s1.5,0.4,1.8,0.7c0.3,0.3,0.5,0.7,0.5,1.2
	c0,0.6-0.2,1.1-0.7,1.5s-1.2,0.6-2.1,0.6c-0.9,0-1.5-0.2-2-0.5S151.8,40.4,151.6,39.8z M166.1,35.4v1.3H165v2.5c0,0.5,0,0.8,0,0.9
	s0.1,0.2,0.1,0.2s0.2,0.1,0.3,0.1c0.1,0,0.4,0,0.7-0.2l0.1,1.3c-0.4,0.2-0.8,0.2-1.3,0.2c-0.3,0-0.6,0-0.8-0.2s-0.4-0.2-0.5-0.4
	s-0.2-0.4-0.2-0.6c0-0.2-0.1-0.6-0.1-1.2v-2.7h-0.8v-1.3h0.8v-1.2l1.6-1v2.2L166.1,35.4L166.1,35.4z M166.9,38.4
	c0-0.5,0.1-1.1,0.4-1.6s0.6-0.9,1.1-1.2s1.1-0.4,1.7-0.4c0.9,0,1.7,0.3,2.3,0.9s0.9,1.4,0.9,2.3s-0.3,1.7-0.9,2.3s-1.4,0.9-2.3,0.9
	c-0.6,0-1.1-0.1-1.6-0.4s-0.9-0.6-1.2-1.1S166.9,39.2,166.9,38.4z M168.6,38.5c0,0.6,0.1,1.1,0.4,1.4s0.6,0.5,1.1,0.5
	s0.8-0.2,1.1-0.5s0.4-0.8,0.4-1.4c0-0.6-0.1-1.1-0.4-1.4s-0.6-0.5-1.1-0.5s-0.8,0.2-1.1,0.5S168.6,37.9,168.6,38.5z M184.7,41.6
	h-1.6v-3.2c0-0.7,0-1.1-0.1-1.3s-0.2-0.3-0.3-0.5s-0.4-0.2-0.6-0.2c-0.3,0-0.5,0.1-0.8,0.2s-0.4,0.4-0.5,0.6s-0.1,0.7-0.1,1.4v2.8
	H179v-6.2h1.5v0.9c0.5-0.7,1.2-1,2.1-1c0.4,0,0.7,0.1,1,0.2s0.5,0.3,0.7,0.5s0.3,0.4,0.3,0.7s0.1,0.6,0.1,1.1L184.7,41.6L184.7,41.6
	z M190,39.7l1.6,0.3c-0.2,0.6-0.5,1.1-1,1.4s-1,0.5-1.7,0.5c-1.1,0-1.9-0.3-2.4-1.1c-0.4-0.6-0.6-1.3-0.6-2.1c0-1,0.3-1.8,0.8-2.4
	s1.2-0.9,2-0.9c0.9,0,1.7,0.3,2.2,0.9s0.8,1.5,0.8,2.8h-4.1c0,0.5,0.1,0.9,0.4,1.1s0.6,0.4,0.9,0.4c0.3,0,0.5-0.1,0.6-0.2
	S189.9,40,190,39.7z M190.1,38c0-0.5-0.1-0.8-0.4-1.1s-0.5-0.4-0.9-0.4c-0.4,0-0.7,0.1-0.9,0.4s-0.4,0.6-0.4,1.1H190.1z M194.3,37.3
	l-1.5-0.3c0.2-0.6,0.5-1,0.9-1.3s1-0.4,1.8-0.4c0.7,0,1.3,0.1,1.6,0.3s0.6,0.4,0.8,0.7s0.2,0.8,0.2,1.5l0,1.9c0,0.5,0,1,0.1,1.2
	s0.1,0.5,0.3,0.8h-1.6c0-0.1-0.1-0.3-0.2-0.5c0-0.1-0.1-0.2-0.1-0.2c-0.3,0.3-0.6,0.5-0.9,0.6s-0.7,0.2-1,0.2
	c-0.6,0-1.1-0.2-1.5-0.5s-0.6-0.8-0.6-1.3c0-0.3,0.1-0.7,0.2-0.9s0.4-0.5,0.7-0.6s0.7-0.3,1.3-0.4c0.8-0.1,1.3-0.3,1.6-0.4v-0.2
	c0-0.3-0.1-0.5-0.2-0.7s-0.4-0.2-0.9-0.2c-0.3,0-0.5,0.1-0.7,0.2S194.4,37,194.3,37.3z M196.5,38.6c-0.2,0.1-0.5,0.2-1,0.2
	s-0.8,0.2-0.9,0.3c-0.2,0.2-0.3,0.3-0.3,0.6c0,0.2,0.1,0.4,0.3,0.6s0.4,0.2,0.7,0.2c0.3,0,0.6-0.1,0.9-0.3c0.2-0.2,0.3-0.3,0.4-0.5
	c0-0.1,0.1-0.4,0.1-0.8V38.6z M201.3,41.6h-1.6v-6.2h1.5v0.9c0.3-0.4,0.5-0.7,0.7-0.8s0.4-0.2,0.7-0.2c0.4,0,0.7,0.1,1.1,0.3
	l-0.5,1.4c-0.3-0.2-0.5-0.3-0.8-0.3c-0.2,0-0.4,0.1-0.6,0.2s-0.3,0.4-0.4,0.7s-0.1,1-0.1,2.1L201.3,41.6L201.3,41.6z M204.3,41.6V33
	h1.6v3.1c0.5-0.6,1.1-0.9,1.8-0.9c0.8,0,1.4,0.3,1.9,0.8s0.7,1.3,0.7,2.4c0,1.1-0.2,1.9-0.8,2.5s-1.1,0.9-1.8,0.9
	c-0.4,0-0.7-0.1-1.1-0.3s-0.6-0.4-0.9-0.8v0.9L204.3,41.6L204.3,41.6z M206,38.4c0,0.6,0.1,1.1,0.3,1.4c0.3,0.4,0.7,0.7,1.1,0.7
	c0.4,0,0.7-0.2,0.9-0.5s0.4-0.8,0.4-1.5c0-0.7-0.1-1.2-0.4-1.5s-0.6-0.5-1-0.5c-0.4,0-0.7,0.2-1,0.5S206,37.8,206,38.4z M211,35.4
	h1.8l1.5,4.4l1.4-4.4h1.7l-2.2,6l-0.4,1.1c-0.1,0.4-0.3,0.6-0.4,0.8s-0.3,0.3-0.4,0.5s-0.4,0.2-0.6,0.3s-0.5,0.1-0.8,0.1
	c-0.3,0-0.6,0-0.9-0.1l-0.1-1.3c0.3,0,0.5,0.1,0.7,0.1c0.4,0,0.7-0.1,0.9-0.3s0.3-0.5,0.4-0.9L211,35.4z M224.1,37.3l-1.5-0.3
	c0.2-0.6,0.5-1,0.9-1.3s1-0.4,1.8-0.4c0.7,0,1.3,0.1,1.6,0.3s0.6,0.4,0.8,0.7s0.2,0.8,0.2,1.5l0,1.9c0,0.5,0,1,0.1,1.2
	s0.1,0.5,0.3,0.8h-1.6c0-0.1-0.1-0.3-0.2-0.5c0-0.1-0.1-0.2-0.1-0.2c-0.3,0.3-0.6,0.5-0.9,0.6s-0.7,0.2-1,0.2
	c-0.6,0-1.1-0.2-1.5-0.5s-0.6-0.8-0.6-1.3c0-0.3,0.1-0.7,0.2-0.9s0.4-0.5,0.7-0.6s0.7-0.3,1.3-0.4c0.8-0.1,1.3-0.3,1.6-0.4v-0.2
	c0-0.3-0.1-0.5-0.2-0.7s-0.4-0.2-0.9-0.2c-0.3,0-0.5,0.1-0.7,0.2S224.2,37,224.1,37.3z M226.3,38.6c-0.2,0.1-0.5,0.2-1,0.2
	s-0.8,0.2-0.9,0.3c-0.2,0.2-0.3,0.3-0.3,0.6c0,0.2,0.1,0.4,0.3,0.6s0.4,0.2,0.7,0.2c0.3,0,0.6-0.1,0.9-0.3c0.2-0.2,0.3-0.3,0.4-0.5
	c0-0.1,0.1-0.4,0.1-0.8V38.6z M231.1,41.6h-1.6v-6.2h1.5v0.9c0.3-0.4,0.5-0.7,0.7-0.8s0.4-0.2,0.7-0.2c0.4,0,0.7,0.1,1.1,0.3L233,37
	c-0.3-0.2-0.5-0.3-0.8-0.3c-0.2,0-0.4,0.1-0.6,0.2s-0.3,0.4-0.4,0.7s-0.1,1-0.1,2.1L231.1,41.6L231.1,41.6z M237.1,35.4v1.3h-1.1
	v2.5c0,0.5,0,0.8,0,0.9s0.1,0.2,0.1,0.2s0.2,0.1,0.3,0.1c0.1,0,0.4,0,0.7-0.2l0.1,1.3c-0.4,0.2-0.8,0.2-1.3,0.2
	c-0.3,0-0.6,0-0.8-0.2s-0.4-0.2-0.5-0.4s-0.2-0.4-0.2-0.6c0-0.2-0.1-0.6-0.1-1.2v-2.7h-0.8v-1.3h0.8v-1.2l1.6-1v2.2L237.1,35.4
	L237.1,35.4z M238.2,34.6V33h1.6v1.5H238.2z M238.2,41.6v-6.2h1.6v6.2H238.2z M240.9,39.8l1.6-0.2c0.1,0.3,0.2,0.6,0.4,0.7
	s0.5,0.2,0.9,0.2c0.4,0,0.8-0.1,1-0.2c0.1-0.1,0.2-0.3,0.2-0.4c0-0.1,0-0.2-0.1-0.3s-0.3-0.2-0.6-0.2c-1.3-0.3-2.2-0.6-2.5-0.8
	c-0.5-0.3-0.7-0.8-0.7-1.4c0-0.5,0.2-1,0.6-1.4s1.1-0.5,2-0.5c0.9,0,1.5,0.1,1.9,0.4s0.7,0.7,0.9,1.2l-1.5,0.3
	c-0.1-0.2-0.2-0.4-0.4-0.6s-0.4-0.2-0.8-0.2c-0.4,0-0.7,0.1-0.9,0.2c-0.1,0.1-0.2,0.2-0.2,0.3c0,0.1,0.1,0.2,0.2,0.3
	c0.1,0.1,0.7,0.3,1.5,0.5s1.5,0.4,1.8,0.7c0.3,0.3,0.5,0.7,0.5,1.2c0,0.6-0.2,1.1-0.7,1.5s-1.2,0.6-2.1,0.6c-0.9,0-1.5-0.2-2-0.5
	S241.1,40.4,240.9,39.8z M251.1,35.4v1.3h-1.1v2.5c0,0.5,0,0.8,0,0.9s0.1,0.2,0.1,0.2s0.2,0.1,0.3,0.1c0.1,0,0.4,0,0.7-0.2l0.1,1.3
	c-0.4,0.2-0.8,0.2-1.3,0.2c-0.3,0-0.6,0-0.8-0.2s-0.4-0.2-0.5-0.4s-0.2-0.4-0.2-0.6c0-0.2-0.1-0.6-0.1-1.2v-2.7h-0.8v-1.3h0.8v-1.2
	l1.6-1v2.2L251.1,35.4L251.1,35.4z M251.6,39.8l1.6-0.2c0.1,0.3,0.2,0.6,0.4,0.7s0.5,0.2,0.9,0.2c0.4,0,0.8-0.1,1-0.2
	c0.1-0.1,0.2-0.3,0.2-0.4c0-0.1,0-0.2-0.1-0.3s-0.3-0.2-0.6-0.2c-1.3-0.3-2.2-0.6-2.5-0.8c-0.5-0.3-0.7-0.8-0.7-1.4
	c0-0.5,0.2-1,0.6-1.4s1.1-0.5,2-0.5c0.9,0,1.5,0.1,1.9,0.4s0.7,0.7,0.9,1.2l-1.6,0.3c-0.1-0.2-0.2-0.4-0.4-0.6s-0.4-0.2-0.8-0.2
	c-0.4,0-0.7,0.1-0.9,0.2c-0.1,0.1-0.2,0.2-0.2,0.3c0,0.1,0.1,0.2,0.2,0.3c0.1,0.1,0.7,0.3,1.5,0.5s1.5,0.4,1.8,0.7
	c0.3,0.3,0.5,0.7,0.5,1.2c0,0.6-0.2,1.1-0.7,1.5s-1.2,0.6-2.1,0.6c-0.9,0-1.5-0.2-2-0.5S251.8,40.4,251.6,39.8z M2,51.7l-1.5-0.3
	c0.2-0.6,0.5-1,0.9-1.3s1-0.4,1.8-0.4c0.7,0,1.3,0.1,1.6,0.3s0.6,0.4,0.8,0.7s0.2,0.8,0.2,1.5l0,1.9c0,0.5,0,1,0.1,1.2
	s0.2,0.5,0.3,0.8H4.6c0-0.1-0.1-0.3-0.2-0.5c0-0.1-0.1-0.2-0.1-0.2c-0.3,0.3-0.6,0.5-0.9,0.6s-0.7,0.2-1,0.2c-0.6,0-1.1-0.2-1.5-0.5
	s-0.6-0.8-0.6-1.3c0-0.3,0.1-0.7,0.2-0.9s0.4-0.5,0.7-0.6s0.7-0.3,1.3-0.4C3.4,52.2,4,52.1,4.2,52v-0.2c0-0.3-0.1-0.5-0.2-0.7
	s-0.5-0.2-0.9-0.2c-0.3,0-0.5,0.1-0.7,0.2S2.1,51.4,2,51.7z M4.2,53c-0.2,0.1-0.5,0.2-1,0.2s-0.8,0.2-0.9,0.3
	C2.1,53.7,2,53.9,2,54.2c0,0.2,0.1,0.4,0.3,0.6S2.7,55,2.9,55c0.3,0,0.6-0.1,0.9-0.3c0.2-0.2,0.3-0.3,0.4-0.5c0-0.1,0.1-0.4,0.1-0.8
	V53z M13.1,56h-1.6v-3.2c0-0.7,0-1.1-0.1-1.3s-0.2-0.3-0.3-0.5s-0.4-0.2-0.6-0.2c-0.3,0-0.5,0.1-0.8,0.2s-0.4,0.4-0.5,0.6
	s-0.1,0.7-0.1,1.4V56H7.5v-6.2H9v0.9c0.5-0.7,1.2-1,2.1-1c0.4,0,0.7,0.1,1,0.2s0.5,0.3,0.7,0.5s0.3,0.4,0.3,0.7s0.1,0.6,0.1,1.1V56z
	 M20.5,56H19v-0.9c-0.2,0.4-0.5,0.6-0.9,0.8s-0.7,0.3-1,0.3c-0.7,0-1.3-0.3-1.8-0.9s-0.8-1.4-0.8-2.4c0-1,0.2-1.9,0.7-2.4
	s1.1-0.8,1.9-0.8c0.7,0,1.3,0.3,1.8,0.9v-3.1h1.6L20.5,56L20.5,56z M16.1,52.8c0,0.7,0.1,1.1,0.3,1.4c0.3,0.4,0.6,0.6,1.1,0.6
	c0.4,0,0.7-0.2,1-0.5s0.4-0.8,0.4-1.4c0-0.7-0.1-1.2-0.4-1.5s-0.6-0.5-1-0.5c-0.4,0-0.7,0.2-1,0.5S16.1,52.2,16.1,52.8z M24.9,54.2
	l1.6-0.2c0.1,0.3,0.2,0.6,0.4,0.7s0.5,0.2,0.9,0.2c0.4,0,0.8-0.1,1-0.2c0.1-0.1,0.2-0.3,0.2-0.4c0-0.1,0-0.2-0.1-0.3
	s-0.3-0.2-0.5-0.2c-1.3-0.3-2.2-0.6-2.5-0.8c-0.5-0.3-0.7-0.8-0.7-1.4c0-0.5,0.2-1,0.6-1.4s1.1-0.5,2-0.5c0.9,0,1.5,0.1,1.9,0.4
	s0.7,0.7,0.9,1.2l-1.5,0.3c-0.1-0.2-0.2-0.4-0.4-0.6s-0.5-0.2-0.8-0.2c-0.4,0-0.7,0.1-0.9,0.2c-0.1,0.1-0.2,0.2-0.2,0.3
	c0,0.1,0,0.2,0.2,0.3c0.1,0.1,0.7,0.3,1.5,0.5s1.5,0.4,1.8,0.7c0.3,0.3,0.5,0.7,0.5,1.2c0,0.6-0.2,1.1-0.7,1.5s-1.2,0.6-2.1,0.6
	c-0.9,0-1.5-0.2-2-0.5S25,54.8,24.9,54.2z M33.8,47.4v3.2c0.5-0.6,1.2-0.9,1.9-0.9c0.4,0,0.7,0.1,1,0.2s0.5,0.3,0.7,0.5
	s0.3,0.5,0.3,0.7s0.1,0.7,0.1,1.2V56h-1.7v-3.3c0-0.7,0-1.1-0.1-1.2s-0.2-0.3-0.3-0.4s-0.4-0.2-0.6-0.2c-0.3,0-0.5,0.1-0.7,0.2
	s-0.4,0.3-0.5,0.6s-0.2,0.7-0.2,1.2V56h-1.7v-8.6L33.8,47.4L33.8,47.4z M39.1,52.8c0-0.5,0.1-1.1,0.4-1.6s0.7-0.9,1.2-1.2
	s1-0.4,1.7-0.4c0.9,0,1.7,0.3,2.3,0.9s0.9,1.4,0.9,2.3s-0.3,1.7-0.9,2.3s-1.4,0.9-2.3,0.9c-0.6,0-1.1-0.1-1.6-0.4s-0.9-0.6-1.2-1.1
	S39.1,53.5,39.1,52.8z M40.8,52.9c0,0.6,0.2,1.1,0.4,1.4s0.7,0.5,1.1,0.5s0.8-0.2,1.1-0.5s0.4-0.8,0.4-1.4c0-0.6-0.2-1.1-0.4-1.4
	S42.7,51,42.3,51s-0.8,0.2-1.1,0.5S40.8,52.3,40.8,52.9z M48,56l-2-6.2h1.6l1.2,4.1l1.1-4.1h1.6l1,4.1l1.2-4.1h1.6l-2,6.2h-1.6
	l-1.1-4l-1,4H48z M55.6,54.2l1.7-0.2c0.1,0.3,0.2,0.6,0.4,0.7s0.5,0.2,0.9,0.2c0.4,0,0.8-0.1,1-0.2c0.1-0.1,0.2-0.3,0.2-0.4
	c0-0.1,0-0.2-0.1-0.3c-0.1-0.1-0.3-0.2-0.5-0.2c-1.3-0.3-2.2-0.6-2.5-0.8c-0.5-0.3-0.7-0.8-0.7-1.4c0-0.5,0.2-1,0.6-1.4
	s1.1-0.5,2-0.5c0.8,0,1.5,0.1,1.9,0.4s0.7,0.7,0.9,1.2l-1.5,0.3c-0.1-0.2-0.2-0.4-0.4-0.6s-0.5-0.2-0.8-0.2c-0.4,0-0.7,0.1-0.9,0.2
	c-0.1,0.1-0.2,0.2-0.2,0.3c0,0.1,0,0.2,0.2,0.3c0.2,0.1,0.7,0.3,1.5,0.5s1.5,0.4,1.8,0.7c0.3,0.3,0.5,0.7,0.5,1.2
	c0,0.6-0.2,1.1-0.7,1.5s-1.2,0.6-2.1,0.6c-0.8,0-1.5-0.2-2-0.5S55.7,54.8,55.6,54.2z M62.8,56v-1.7h1.7V56H62.8z"/>
</svg>
