<svg id="Layer_1" data-name="Layer 1" xmlns="http://www.w3.org/2000/svg" viewBox="0 0 975.51 113.27"><defs><style>.cls-1{fill:none;stroke:#fff;stroke-miterlimit:10;stroke-width:3px;}</style></defs><path class="cls-1" d="M929.64,14.3c-3.69,9.92-7,19.14-10.56,28.22a11.73,11.73,0,0,0,.17,10c2.73,6,5,12.22,7.94,19.69,1.41-3,2.28-4.58,2.89-6.23q8.14-22.29,16.19-44.6C948.92,14,948.89,14,956.76,14c1.74,0,3.48.17,6,.3-1.63,4.14-2.95,7.49-4.28,10.84-7.65,19.17-15.39,38.31-22.87,57.55-1.38,3.55-3.29,4.72-7,4.63s-6.53-.42-8.1-4.68c-3.23-8.69-7-17.17-11.2-27.13-1.47,2.73-2.38,4.15-3,5.69-3.16,7.52-6.43,15-9.29,22.64-1.58,4.2-4.82,3.19-7.85,3.39s-5-.3-6.23-3.51c-8.77-22.31-17.72-44.55-26.58-66.83A13.06,13.06,0,0,1,856,14c3.76,0,7.3-.45,10.64.19,1.55.3,3.27,2.5,3.92,4.22,6,15.88,11.8,31.85,17.68,47.78.55,1.48,1.24,2.91,2.42,5.68,1.52-3.26,2.28-5.36,3.4-7.25,6.92-11.61,6.34-23.08.17-34.85-2.43-4.64-3.75-9.87-5.91-15.75,3.68,0,6.66-.39,9.46.16,1.33.27,2.82,2.12,3.38,3.58,2.47,6.5,4.63,13.11,7.41,21.14a38,38,0,0,0,2.56-4.52c1.71-4.69,3.68-9.34,4.83-14.17s3.67-7.09,8.71-6.25C926,14.2,927.27,14.16,929.64,14.3ZM328.81,63.89C327,61,326.7,59.29,330,57.06c8.35-5.66,11.58-16,8.64-25.64C335.49,21.08,327,14.22,316.71,14c-9-.16-18,.13-27-.12-3.94-.1-4.78,1.55-4.7,5.06.17,8.33.05,16.68.05,25q0,17.51,0,35c0,8.62,0,8.5,8.43,8.26,3-.08,4.28-1.1,4.2-4.09-.1-3.34,0-6.67,0-10,.07-13.39-.83-10.51,10.78-11.08,4-.19,6.06,1.32,7.87,4.58,3.24,5.82,6.72,11.52,10.37,17.1a7.63,7.63,0,0,0,4.43,3.28c3.39.5,6.9.15,11.69.15C337.72,78.67,333.39,71.2,328.81,63.89Zm-17-38.51c11-.11,16.9,6.9,14.33,16.65-1.42,5.42-5,8.48-10.63,8.74-4.14.19-8.3-.09-12.43.1-3.81.18-5.56-1.34-5.38-5.19.12-2.49,0-5,0-7.47C297.84,23.05,296,25.52,311.78,25.38ZM798.06,13.84c-19.8-.1-35.87,16.47-35.85,37,0,20.23,15.66,36.53,35.09,36.58,19.94.06,35.41-16,35.41-36.61C832.71,30.29,817.37,13.93,798.06,13.84Zm-1.94,11.32c14.21-.61,25.61,12.42,23.65,27.62a35.09,35.09,0,0,1-4.32,13.11c-8.29,14-27.52,14-35.75,0-2.6-4.43-3.59-9.81-5.32-14.76C775.38,36.79,784.38,25.67,796.12,25.16ZM669.19,50.1c0,10.84.19,21.67-.09,32.5-.13,4.53,2.18,4.89,5.56,4.63s7.37,1.31,7.13-4.66c-.3-7.49-.06-15-.24-22.49-.08-3.54,1.07-5.07,4.89-5,8.48.24,17,.28,25.46,0,4.12-.14,5.21,1.55,5.14,5.27-.15,7.5.16,15-.1,22.49-.18,5.27,3.29,4.34,6.36,4.35s6.4.88,6.35-4.36q-.33-32.25-.14-64.49c0-4.77-2.71-4.5-5.82-4.36s-7-1.19-6.75,4.48c.28,7,0,14,.08,21,.05,3.4-1.27,4.7-4.74,4.62-8.49-.19-17-.28-25.47,0-4.2.14-5.13-1.78-5.1-5.37.06-6.67-.38-13.35-.05-20,.27-5.51-3.21-4.69-6.52-4.75s-6.25-.47-6.1,4.63c.33,10.49.1,21,.1,31.49Zm-557.3.51c0,10.67,0,21.33,0,32,0,2.92.53,4.7,4.09,4.67q20.73-.21,41.46,0c4.16,0,4.07-2.41,3.92-5.23s.91-6.28-4.12-6.07c-5.82.25-11.66.14-17.49,0-16.14-.44-16-.48-15.5-16.66.12-3.39,1.41-4.23,4.5-4.17,7.49.15,15-.07,22.48.1,3.32.07,4.55-1.23,4.31-4.42-.22-2.92.54-6.23-4.32-6-5.65.23-11.32,0-17,.05-11.2,0-9.76.32-9.86-9.58,0-1.84.09-3.68-.07-5.5-.31-3.52,1.27-4.69,4.68-4.62,9,.19,18,0,27,.27,4.69.16,4.45-2.62,4.47-5.8s.11-5.79-4.55-5.7c-13,.26-26,.22-39,0-4-.06-5.25,1.3-5.19,5.18.19,10.5.07,21,.07,31.51Zm262.89.16c0,10.51.09,21,0,31.53-.05,3.57,1,5,4.86,5,13.33-.18,26.67-.24,40,0,4.38.08,4.9-1.9,4.81-5.45s0-6.12-4.89-5.94c-9.15.33-18.33-.07-27.5,0-3.33,0-4.89-1.18-4.72-4.71.2-4,.17-8,0-12-.14-3.06,1.06-4.09,4.07-4,7.5.15,15-.1,22.5.11,3.51.09,4.79-1.14,4.6-4.63-.17-3.12.26-6-4.47-5.85-7.32.27-14.67,0-22,.08-3.37,0-4.87-1.26-4.68-4.75a79.44,79.44,0,0,0,0-10c-.25-3.63,1-5.08,4.81-5,8.82.25,17.67-.07,26.49.31,4.91.21,4.82-2.49,4.84-6s-.2-5.65-4.71-5.55c-13,.27-26,.22-39,0-4.08-.06-5.17,1.56-5.12,5.32.15,10.5.05,21,.05,31.53ZM35.8,17.36c-7.66,4.58-10.91,11.45-10.63,20.08.26,8.06,5.28,12.59,12.3,15.33,2.47,1,5,1.71,7.53,2.57,5,1.7,10.14,3.2,15,5.19,3.27,1.33,5.34,3.93,5,7.82S62.27,74.47,58.74,75c-3.71.57-7.73,1.22-11.26.36-6.66-1.64-13.06-4.33-20-6.72a38,38,0,0,1-2.43,4.46c-3,4.17-1.85,6.51,2.7,8.7a57.53,57.53,0,0,0,31.53,5.32c11.48-1.2,18.57-8.23,19.82-19C80.25,58.42,75.3,51.62,64,47.51c-2.65-1-5.4-1.66-8.09-2.5-4-1.24-8-2.36-11.82-3.8-3.59-1.34-5.84-4-5.5-8s2.7-6.76,6.46-7.3A36.3,36.3,0,0,1,57.32,26c4.61.95,9,3.17,13.78,5,1.64-3,3.27-6.07,4.85-9C66,13,45.85,11.34,35.8,17.36ZM582.1,73.29c-2.71,3.92-1.92,6.2,2.5,8.37a56.79,56.79,0,0,0,32,5.44c11.54-1.28,18.29-8.19,19.58-19.18,1.12-9.62-3.86-16.48-15.28-20.47-5.79-2-11.8-3.39-17.6-5.37-6-2.07-8.33-5.23-7.54-9.57s4.78-7.85,10.46-7.2c7.26.84,14.39,2.84,22.53,4.53l4.51-8.35c-10.58-7.09-21.68-9.51-33.57-6.65-11.17,2.69-17.13,10.2-17.47,20.8-.29,9.08,4.34,14.53,15.78,18.51,1.41.48,2.89.76,4.3,1.23,4.88,1.63,9.81,3.12,14.58,5,3.49,1.39,5.7,4.05,5.28,8.15-.4,3.91-3,6-6.51,6.51s-7.41,1.24-10.77.41c-6.69-1.65-13.13-4.3-20.24-6.73A47.89,47.89,0,0,1,582.1,73.29Zm-334-5c-3.3-2.37-5.47-2.45-8.55,1.24-5.19,6.22-12.65,8-20.45,5.95-15.57-4-22.54-25.22-13.39-40,5.44-8.77,14.8-12.72,24.5-9.21C235,28,239,31.65,243.91,34.84l7.84-5.42c-6-12.54-21.23-18.6-36.23-14.77C198.44,19,187.77,34.46,189,53.13c1,16.37,14.35,32,29,34.05,15.24,2.12,31-5.07,34.68-16.05C251.16,70.21,249.58,69.32,248.12,68.27ZM475,56.1c0,8.49.26,17-.11,25.48-.2,4.86,1.74,5.88,6.12,5.76,4.12-.11,6.84-.13,6.72-5.68-.34-16.65,0-33.31-.2-50-.06-4.65,1.26-6.76,6.2-6.43,4.47.3,9-.26,13.47,0,5,.25,4.05-3.07,4.2-6,.16-3.2-.15-5.36-4.39-5.32q-25.71.28-51.41,0c-4.78-.06-4.33,2.72-4.41,5.83-.1,3.36.09,5.94,4.61,5.65,4.81-.32,9.66,0,14.47-.26,3.73-.19,5,1.37,4.92,5-.15,8.66,0,17.32,0,26Z"/></svg>